M48
; DRILL file {KiCad 8.0.3} date 2024-07-07T19:01:39+0900
; FORMAT={-:-/ absolute / inch / decimal}
; #@! TF.CreationDate,2024-07-07T19:01:39+09:00
; #@! TF.GenerationSoftware,Kicad,Pcbnew,8.0.3
; #@! TF.FileFunction,Plated,1,2,PTH
FMAT,2
INCH
; #@! TA.AperFunction,Plated,PTH,ComponentDrill
T1C0.0315
; #@! TA.AperFunction,Plated,PTH,ComponentDrill
T2C0.0354
; #@! TA.AperFunction,Plated,PTH,ComponentDrill
T3C0.0394
%
G90
G05
T1
X4.9Y-2.75
X4.9Y-3.15
T2
X4.85Y-2.6
X4.95Y-2.6
T3
X4.1732Y-2.5984
X4.1732Y-3.1102
X4.5Y-2.6
X4.5Y-2.7
X4.5Y-2.8
X4.5Y-2.9
X4.5Y-3.0
X4.5Y-3.1
X4.7Y-2.6
X4.7Y-2.7
X4.7Y-2.8
X4.7Y-2.9
X4.7Y-3.0
X4.7Y-3.1
X5.1Y-2.75
X5.1Y-2.85
X5.1Y-2.95
X5.2785Y-2.7494
X5.2785Y-2.8494
X5.2785Y-2.9494
X5.3785Y-2.7494
X5.3785Y-2.8494
X5.3785Y-2.9494
M30
