%TF.GenerationSoftware,KiCad,Pcbnew,8.0.3*%
%TF.CreationDate,2024-07-07T19:01:36+09:00*%
%TF.ProjectId,next_usb_device,6e657874-5f75-4736-925f-646576696365,rev?*%
%TF.SameCoordinates,Original*%
%TF.FileFunction,Legend,Top*%
%TF.FilePolarity,Positive*%
%FSLAX46Y46*%
G04 Gerber Fmt 4.6, Leading zero omitted, Abs format (unit mm)*
G04 Created by KiCad (PCBNEW 8.0.3) date 2024-07-07 19:01:36*
%MOMM*%
%LPD*%
G01*
G04 APERTURE LIST*
%ADD10C,0.100000*%
%ADD11C,0.150000*%
%ADD12C,0.120000*%
G04 APERTURE END LIST*
D10*
X132000000Y-75000000D02*
X132600000Y-75000000D01*
X132000000Y-69800000D02*
X132800000Y-69800000D01*
X132000000Y-72400000D02*
X132800000Y-72400000D01*
X132000000Y-68400000D02*
X132000000Y-76400000D01*
X131875312Y-64557292D02*
X131827693Y-64604912D01*
X131827693Y-64604912D02*
X131684836Y-64652531D01*
X131684836Y-64652531D02*
X131589598Y-64652531D01*
X131589598Y-64652531D02*
X131446741Y-64604912D01*
X131446741Y-64604912D02*
X131351503Y-64509673D01*
X131351503Y-64509673D02*
X131303884Y-64414435D01*
X131303884Y-64414435D02*
X131256265Y-64223959D01*
X131256265Y-64223959D02*
X131256265Y-64081102D01*
X131256265Y-64081102D02*
X131303884Y-63890626D01*
X131303884Y-63890626D02*
X131351503Y-63795388D01*
X131351503Y-63795388D02*
X131446741Y-63700150D01*
X131446741Y-63700150D02*
X131589598Y-63652531D01*
X131589598Y-63652531D02*
X131684836Y-63652531D01*
X131684836Y-63652531D02*
X131827693Y-63700150D01*
X131827693Y-63700150D02*
X131875312Y-63747769D01*
X132208646Y-63652531D02*
X132446741Y-64652531D01*
X132446741Y-64652531D02*
X132637217Y-63938245D01*
X132637217Y-63938245D02*
X132827693Y-64652531D01*
X132827693Y-64652531D02*
X133065789Y-63652531D01*
X134018169Y-64557292D02*
X133970550Y-64604912D01*
X133970550Y-64604912D02*
X133827693Y-64652531D01*
X133827693Y-64652531D02*
X133732455Y-64652531D01*
X133732455Y-64652531D02*
X133589598Y-64604912D01*
X133589598Y-64604912D02*
X133494360Y-64509673D01*
X133494360Y-64509673D02*
X133446741Y-64414435D01*
X133446741Y-64414435D02*
X133399122Y-64223959D01*
X133399122Y-64223959D02*
X133399122Y-64081102D01*
X133399122Y-64081102D02*
X133446741Y-63890626D01*
X133446741Y-63890626D02*
X133494360Y-63795388D01*
X133494360Y-63795388D02*
X133589598Y-63700150D01*
X133589598Y-63700150D02*
X133732455Y-63652531D01*
X133732455Y-63652531D02*
X133827693Y-63652531D01*
X133827693Y-63652531D02*
X133970550Y-63700150D01*
X133970550Y-63700150D02*
X134018169Y-63747769D01*
X135018169Y-64557292D02*
X134970550Y-64604912D01*
X134970550Y-64604912D02*
X134827693Y-64652531D01*
X134827693Y-64652531D02*
X134732455Y-64652531D01*
X134732455Y-64652531D02*
X134589598Y-64604912D01*
X134589598Y-64604912D02*
X134494360Y-64509673D01*
X134494360Y-64509673D02*
X134446741Y-64414435D01*
X134446741Y-64414435D02*
X134399122Y-64223959D01*
X134399122Y-64223959D02*
X134399122Y-64081102D01*
X134399122Y-64081102D02*
X134446741Y-63890626D01*
X134446741Y-63890626D02*
X134494360Y-63795388D01*
X134494360Y-63795388D02*
X134589598Y-63700150D01*
X134589598Y-63700150D02*
X134732455Y-63652531D01*
X134732455Y-63652531D02*
X134827693Y-63652531D01*
X134827693Y-63652531D02*
X134970550Y-63700150D01*
X134970550Y-63700150D02*
X135018169Y-63747769D01*
X135351503Y-63652531D02*
X135589598Y-64652531D01*
X135589598Y-64652531D02*
X135780074Y-63938245D01*
X135780074Y-63938245D02*
X135970550Y-64652531D01*
X135970550Y-64652531D02*
X136208646Y-63652531D01*
X131303884Y-66262475D02*
X131303884Y-65262475D01*
X131303884Y-65262475D02*
X131684836Y-65262475D01*
X131684836Y-65262475D02*
X131780074Y-65310094D01*
X131780074Y-65310094D02*
X131827693Y-65357713D01*
X131827693Y-65357713D02*
X131875312Y-65452951D01*
X131875312Y-65452951D02*
X131875312Y-65595808D01*
X131875312Y-65595808D02*
X131827693Y-65691046D01*
X131827693Y-65691046D02*
X131780074Y-65738665D01*
X131780074Y-65738665D02*
X131684836Y-65786284D01*
X131684836Y-65786284D02*
X131303884Y-65786284D01*
X132208646Y-65262475D02*
X132446741Y-66262475D01*
X132446741Y-66262475D02*
X132637217Y-65548189D01*
X132637217Y-65548189D02*
X132827693Y-66262475D01*
X132827693Y-66262475D02*
X133065789Y-65262475D01*
X133446741Y-66262475D02*
X133446741Y-65262475D01*
X133446741Y-65262475D02*
X133780074Y-65976760D01*
X133780074Y-65976760D02*
X134113407Y-65262475D01*
X134113407Y-65262475D02*
X134113407Y-66262475D01*
X131827693Y-66920038D02*
X131732455Y-66872419D01*
X131732455Y-66872419D02*
X131589598Y-66872419D01*
X131589598Y-66872419D02*
X131446741Y-66920038D01*
X131446741Y-66920038D02*
X131351503Y-67015276D01*
X131351503Y-67015276D02*
X131303884Y-67110514D01*
X131303884Y-67110514D02*
X131256265Y-67300990D01*
X131256265Y-67300990D02*
X131256265Y-67443847D01*
X131256265Y-67443847D02*
X131303884Y-67634323D01*
X131303884Y-67634323D02*
X131351503Y-67729561D01*
X131351503Y-67729561D02*
X131446741Y-67824800D01*
X131446741Y-67824800D02*
X131589598Y-67872419D01*
X131589598Y-67872419D02*
X131684836Y-67872419D01*
X131684836Y-67872419D02*
X131827693Y-67824800D01*
X131827693Y-67824800D02*
X131875312Y-67777180D01*
X131875312Y-67777180D02*
X131875312Y-67443847D01*
X131875312Y-67443847D02*
X131684836Y-67443847D01*
X132303884Y-67872419D02*
X132303884Y-66872419D01*
X132303884Y-66872419D02*
X132875312Y-67872419D01*
X132875312Y-67872419D02*
X132875312Y-66872419D01*
X133351503Y-67872419D02*
X133351503Y-66872419D01*
X133351503Y-66872419D02*
X133589598Y-66872419D01*
X133589598Y-66872419D02*
X133732455Y-66920038D01*
X133732455Y-66920038D02*
X133827693Y-67015276D01*
X133827693Y-67015276D02*
X133875312Y-67110514D01*
X133875312Y-67110514D02*
X133922931Y-67300990D01*
X133922931Y-67300990D02*
X133922931Y-67443847D01*
X133922931Y-67443847D02*
X133875312Y-67634323D01*
X133875312Y-67634323D02*
X133827693Y-67729561D01*
X133827693Y-67729561D02*
X133732455Y-67824800D01*
X133732455Y-67824800D02*
X133589598Y-67872419D01*
X133589598Y-67872419D02*
X133351503Y-67872419D01*
X128303884Y-77652531D02*
X128303884Y-76652531D01*
X128303884Y-76652531D02*
X128684836Y-76652531D01*
X128684836Y-76652531D02*
X128780074Y-76700150D01*
X128780074Y-76700150D02*
X128827693Y-76747769D01*
X128827693Y-76747769D02*
X128875312Y-76843007D01*
X128875312Y-76843007D02*
X128875312Y-76985864D01*
X128875312Y-76985864D02*
X128827693Y-77081102D01*
X128827693Y-77081102D02*
X128780074Y-77128721D01*
X128780074Y-77128721D02*
X128684836Y-77176340D01*
X128684836Y-77176340D02*
X128303884Y-77176340D01*
X129208646Y-76652531D02*
X129446741Y-77652531D01*
X129446741Y-77652531D02*
X129637217Y-76938245D01*
X129637217Y-76938245D02*
X129827693Y-77652531D01*
X129827693Y-77652531D02*
X130065789Y-76652531D01*
X130446741Y-77652531D02*
X130446741Y-76652531D01*
X130446741Y-76652531D02*
X130780074Y-77366816D01*
X130780074Y-77366816D02*
X131113407Y-76652531D01*
X131113407Y-76652531D02*
X131113407Y-77652531D01*
X128780074Y-78262475D02*
X128303884Y-78262475D01*
X128303884Y-78262475D02*
X128256265Y-78738665D01*
X128256265Y-78738665D02*
X128303884Y-78691046D01*
X128303884Y-78691046D02*
X128399122Y-78643427D01*
X128399122Y-78643427D02*
X128637217Y-78643427D01*
X128637217Y-78643427D02*
X128732455Y-78691046D01*
X128732455Y-78691046D02*
X128780074Y-78738665D01*
X128780074Y-78738665D02*
X128827693Y-78833903D01*
X128827693Y-78833903D02*
X128827693Y-79071998D01*
X128827693Y-79071998D02*
X128780074Y-79167236D01*
X128780074Y-79167236D02*
X128732455Y-79214856D01*
X128732455Y-79214856D02*
X128637217Y-79262475D01*
X128637217Y-79262475D02*
X128399122Y-79262475D01*
X128399122Y-79262475D02*
X128303884Y-79214856D01*
X128303884Y-79214856D02*
X128256265Y-79167236D01*
X129113408Y-78262475D02*
X129446741Y-79262475D01*
X129446741Y-79262475D02*
X129780074Y-78262475D01*
X128827693Y-79920038D02*
X128732455Y-79872419D01*
X128732455Y-79872419D02*
X128589598Y-79872419D01*
X128589598Y-79872419D02*
X128446741Y-79920038D01*
X128446741Y-79920038D02*
X128351503Y-80015276D01*
X128351503Y-80015276D02*
X128303884Y-80110514D01*
X128303884Y-80110514D02*
X128256265Y-80300990D01*
X128256265Y-80300990D02*
X128256265Y-80443847D01*
X128256265Y-80443847D02*
X128303884Y-80634323D01*
X128303884Y-80634323D02*
X128351503Y-80729561D01*
X128351503Y-80729561D02*
X128446741Y-80824800D01*
X128446741Y-80824800D02*
X128589598Y-80872419D01*
X128589598Y-80872419D02*
X128684836Y-80872419D01*
X128684836Y-80872419D02*
X128827693Y-80824800D01*
X128827693Y-80824800D02*
X128875312Y-80777180D01*
X128875312Y-80777180D02*
X128875312Y-80443847D01*
X128875312Y-80443847D02*
X128684836Y-80443847D01*
X129303884Y-80872419D02*
X129303884Y-79872419D01*
X129303884Y-79872419D02*
X129875312Y-80872419D01*
X129875312Y-80872419D02*
X129875312Y-79872419D01*
X130351503Y-80872419D02*
X130351503Y-79872419D01*
X130351503Y-79872419D02*
X130589598Y-79872419D01*
X130589598Y-79872419D02*
X130732455Y-79920038D01*
X130732455Y-79920038D02*
X130827693Y-80015276D01*
X130827693Y-80015276D02*
X130875312Y-80110514D01*
X130875312Y-80110514D02*
X130922931Y-80300990D01*
X130922931Y-80300990D02*
X130922931Y-80443847D01*
X130922931Y-80443847D02*
X130875312Y-80634323D01*
X130875312Y-80634323D02*
X130827693Y-80729561D01*
X130827693Y-80729561D02*
X130732455Y-80824800D01*
X130732455Y-80824800D02*
X130589598Y-80872419D01*
X130589598Y-80872419D02*
X130351503Y-80872419D01*
D11*
X109615601Y-68724860D02*
X109567982Y-68772480D01*
X109567982Y-68772480D02*
X109425125Y-68820099D01*
X109425125Y-68820099D02*
X109329887Y-68820099D01*
X109329887Y-68820099D02*
X109187030Y-68772480D01*
X109187030Y-68772480D02*
X109091792Y-68677241D01*
X109091792Y-68677241D02*
X109044173Y-68582003D01*
X109044173Y-68582003D02*
X108996554Y-68391527D01*
X108996554Y-68391527D02*
X108996554Y-68248670D01*
X108996554Y-68248670D02*
X109044173Y-68058194D01*
X109044173Y-68058194D02*
X109091792Y-67962956D01*
X109091792Y-67962956D02*
X109187030Y-67867718D01*
X109187030Y-67867718D02*
X109329887Y-67820099D01*
X109329887Y-67820099D02*
X109425125Y-67820099D01*
X109425125Y-67820099D02*
X109567982Y-67867718D01*
X109567982Y-67867718D02*
X109615601Y-67915337D01*
X110234649Y-67820099D02*
X110425125Y-67820099D01*
X110425125Y-67820099D02*
X110520363Y-67867718D01*
X110520363Y-67867718D02*
X110615601Y-67962956D01*
X110615601Y-67962956D02*
X110663220Y-68153432D01*
X110663220Y-68153432D02*
X110663220Y-68486765D01*
X110663220Y-68486765D02*
X110615601Y-68677241D01*
X110615601Y-68677241D02*
X110520363Y-68772480D01*
X110520363Y-68772480D02*
X110425125Y-68820099D01*
X110425125Y-68820099D02*
X110234649Y-68820099D01*
X110234649Y-68820099D02*
X110139411Y-68772480D01*
X110139411Y-68772480D02*
X110044173Y-68677241D01*
X110044173Y-68677241D02*
X109996554Y-68486765D01*
X109996554Y-68486765D02*
X109996554Y-68153432D01*
X109996554Y-68153432D02*
X110044173Y-67962956D01*
X110044173Y-67962956D02*
X110139411Y-67867718D01*
X110139411Y-67867718D02*
X110234649Y-67820099D01*
X111091792Y-68820099D02*
X111091792Y-67820099D01*
X111091792Y-67820099D02*
X111663220Y-68820099D01*
X111663220Y-68820099D02*
X111663220Y-67820099D01*
X107139411Y-69430043D02*
X107139411Y-70239566D01*
X107139411Y-70239566D02*
X107187030Y-70334804D01*
X107187030Y-70334804D02*
X107234649Y-70382424D01*
X107234649Y-70382424D02*
X107329887Y-70430043D01*
X107329887Y-70430043D02*
X107520363Y-70430043D01*
X107520363Y-70430043D02*
X107615601Y-70382424D01*
X107615601Y-70382424D02*
X107663220Y-70334804D01*
X107663220Y-70334804D02*
X107710839Y-70239566D01*
X107710839Y-70239566D02*
X107710839Y-69430043D01*
X108187030Y-70430043D02*
X108187030Y-69430043D01*
X108187030Y-69430043D02*
X108758458Y-70430043D01*
X108758458Y-70430043D02*
X108758458Y-69430043D01*
X109234649Y-69430043D02*
X109234649Y-70239566D01*
X109234649Y-70239566D02*
X109282268Y-70334804D01*
X109282268Y-70334804D02*
X109329887Y-70382424D01*
X109329887Y-70382424D02*
X109425125Y-70430043D01*
X109425125Y-70430043D02*
X109615601Y-70430043D01*
X109615601Y-70430043D02*
X109710839Y-70382424D01*
X109710839Y-70382424D02*
X109758458Y-70334804D01*
X109758458Y-70334804D02*
X109806077Y-70239566D01*
X109806077Y-70239566D02*
X109806077Y-69430043D01*
X110234649Y-70382424D02*
X110377506Y-70430043D01*
X110377506Y-70430043D02*
X110615601Y-70430043D01*
X110615601Y-70430043D02*
X110710839Y-70382424D01*
X110710839Y-70382424D02*
X110758458Y-70334804D01*
X110758458Y-70334804D02*
X110806077Y-70239566D01*
X110806077Y-70239566D02*
X110806077Y-70144328D01*
X110806077Y-70144328D02*
X110758458Y-70049090D01*
X110758458Y-70049090D02*
X110710839Y-70001471D01*
X110710839Y-70001471D02*
X110615601Y-69953852D01*
X110615601Y-69953852D02*
X110425125Y-69906233D01*
X110425125Y-69906233D02*
X110329887Y-69858614D01*
X110329887Y-69858614D02*
X110282268Y-69810995D01*
X110282268Y-69810995D02*
X110234649Y-69715757D01*
X110234649Y-69715757D02*
X110234649Y-69620519D01*
X110234649Y-69620519D02*
X110282268Y-69525281D01*
X110282268Y-69525281D02*
X110329887Y-69477662D01*
X110329887Y-69477662D02*
X110425125Y-69430043D01*
X110425125Y-69430043D02*
X110663220Y-69430043D01*
X110663220Y-69430043D02*
X110806077Y-69477662D01*
X111234649Y-69906233D02*
X111567982Y-69906233D01*
X111710839Y-70430043D02*
X111234649Y-70430043D01*
X111234649Y-70430043D02*
X111234649Y-69430043D01*
X111234649Y-69430043D02*
X111710839Y-69430043D01*
X106377506Y-71944748D02*
X106329887Y-71992368D01*
X106329887Y-71992368D02*
X106187030Y-72039987D01*
X106187030Y-72039987D02*
X106091792Y-72039987D01*
X106091792Y-72039987D02*
X105948935Y-71992368D01*
X105948935Y-71992368D02*
X105853697Y-71897129D01*
X105853697Y-71897129D02*
X105806078Y-71801891D01*
X105806078Y-71801891D02*
X105758459Y-71611415D01*
X105758459Y-71611415D02*
X105758459Y-71468558D01*
X105758459Y-71468558D02*
X105806078Y-71278082D01*
X105806078Y-71278082D02*
X105853697Y-71182844D01*
X105853697Y-71182844D02*
X105948935Y-71087606D01*
X105948935Y-71087606D02*
X106091792Y-71039987D01*
X106091792Y-71039987D02*
X106187030Y-71039987D01*
X106187030Y-71039987D02*
X106329887Y-71087606D01*
X106329887Y-71087606D02*
X106377506Y-71135225D01*
X106710840Y-71039987D02*
X106948935Y-72039987D01*
X106948935Y-72039987D02*
X107139411Y-71325701D01*
X107139411Y-71325701D02*
X107329887Y-72039987D01*
X107329887Y-72039987D02*
X107567983Y-71039987D01*
X108663220Y-70992368D02*
X107806078Y-72278082D01*
X109567982Y-71944748D02*
X109520363Y-71992368D01*
X109520363Y-71992368D02*
X109377506Y-72039987D01*
X109377506Y-72039987D02*
X109282268Y-72039987D01*
X109282268Y-72039987D02*
X109139411Y-71992368D01*
X109139411Y-71992368D02*
X109044173Y-71897129D01*
X109044173Y-71897129D02*
X108996554Y-71801891D01*
X108996554Y-71801891D02*
X108948935Y-71611415D01*
X108948935Y-71611415D02*
X108948935Y-71468558D01*
X108948935Y-71468558D02*
X108996554Y-71278082D01*
X108996554Y-71278082D02*
X109044173Y-71182844D01*
X109044173Y-71182844D02*
X109139411Y-71087606D01*
X109139411Y-71087606D02*
X109282268Y-71039987D01*
X109282268Y-71039987D02*
X109377506Y-71039987D01*
X109377506Y-71039987D02*
X109520363Y-71087606D01*
X109520363Y-71087606D02*
X109567982Y-71135225D01*
X110567982Y-71944748D02*
X110520363Y-71992368D01*
X110520363Y-71992368D02*
X110377506Y-72039987D01*
X110377506Y-72039987D02*
X110282268Y-72039987D01*
X110282268Y-72039987D02*
X110139411Y-71992368D01*
X110139411Y-71992368D02*
X110044173Y-71897129D01*
X110044173Y-71897129D02*
X109996554Y-71801891D01*
X109996554Y-71801891D02*
X109948935Y-71611415D01*
X109948935Y-71611415D02*
X109948935Y-71468558D01*
X109948935Y-71468558D02*
X109996554Y-71278082D01*
X109996554Y-71278082D02*
X110044173Y-71182844D01*
X110044173Y-71182844D02*
X110139411Y-71087606D01*
X110139411Y-71087606D02*
X110282268Y-71039987D01*
X110282268Y-71039987D02*
X110377506Y-71039987D01*
X110377506Y-71039987D02*
X110520363Y-71087606D01*
X110520363Y-71087606D02*
X110567982Y-71135225D01*
X110901316Y-71039987D02*
X111139411Y-72039987D01*
X111139411Y-72039987D02*
X111329887Y-71325701D01*
X111329887Y-71325701D02*
X111520363Y-72039987D01*
X111520363Y-72039987D02*
X111758459Y-71039987D01*
X108853697Y-73649931D02*
X108853697Y-72649931D01*
X108853697Y-72649931D02*
X109234649Y-72649931D01*
X109234649Y-72649931D02*
X109329887Y-72697550D01*
X109329887Y-72697550D02*
X109377506Y-72745169D01*
X109377506Y-72745169D02*
X109425125Y-72840407D01*
X109425125Y-72840407D02*
X109425125Y-72983264D01*
X109425125Y-72983264D02*
X109377506Y-73078502D01*
X109377506Y-73078502D02*
X109329887Y-73126121D01*
X109329887Y-73126121D02*
X109234649Y-73173740D01*
X109234649Y-73173740D02*
X108853697Y-73173740D01*
X109758459Y-72649931D02*
X109996554Y-73649931D01*
X109996554Y-73649931D02*
X110187030Y-72935645D01*
X110187030Y-72935645D02*
X110377506Y-73649931D01*
X110377506Y-73649931D02*
X110615602Y-72649931D01*
X110996554Y-73649931D02*
X110996554Y-72649931D01*
X110996554Y-72649931D02*
X111329887Y-73364216D01*
X111329887Y-73364216D02*
X111663220Y-72649931D01*
X111663220Y-72649931D02*
X111663220Y-73649931D01*
X109615601Y-74307494D02*
X109520363Y-74259875D01*
X109520363Y-74259875D02*
X109377506Y-74259875D01*
X109377506Y-74259875D02*
X109234649Y-74307494D01*
X109234649Y-74307494D02*
X109139411Y-74402732D01*
X109139411Y-74402732D02*
X109091792Y-74497970D01*
X109091792Y-74497970D02*
X109044173Y-74688446D01*
X109044173Y-74688446D02*
X109044173Y-74831303D01*
X109044173Y-74831303D02*
X109091792Y-75021779D01*
X109091792Y-75021779D02*
X109139411Y-75117017D01*
X109139411Y-75117017D02*
X109234649Y-75212256D01*
X109234649Y-75212256D02*
X109377506Y-75259875D01*
X109377506Y-75259875D02*
X109472744Y-75259875D01*
X109472744Y-75259875D02*
X109615601Y-75212256D01*
X109615601Y-75212256D02*
X109663220Y-75164636D01*
X109663220Y-75164636D02*
X109663220Y-74831303D01*
X109663220Y-74831303D02*
X109472744Y-74831303D01*
X110091792Y-75259875D02*
X110091792Y-74259875D01*
X110091792Y-74259875D02*
X110663220Y-75259875D01*
X110663220Y-75259875D02*
X110663220Y-74259875D01*
X111139411Y-75259875D02*
X111139411Y-74259875D01*
X111139411Y-74259875D02*
X111377506Y-74259875D01*
X111377506Y-74259875D02*
X111520363Y-74307494D01*
X111520363Y-74307494D02*
X111615601Y-74402732D01*
X111615601Y-74402732D02*
X111663220Y-74497970D01*
X111663220Y-74497970D02*
X111710839Y-74688446D01*
X111710839Y-74688446D02*
X111710839Y-74831303D01*
X111710839Y-74831303D02*
X111663220Y-75021779D01*
X111663220Y-75021779D02*
X111615601Y-75117017D01*
X111615601Y-75117017D02*
X111520363Y-75212256D01*
X111520363Y-75212256D02*
X111377506Y-75259875D01*
X111377506Y-75259875D02*
X111139411Y-75259875D01*
X110806077Y-75869819D02*
X110329887Y-75869819D01*
X110329887Y-75869819D02*
X110282268Y-76346009D01*
X110282268Y-76346009D02*
X110329887Y-76298390D01*
X110329887Y-76298390D02*
X110425125Y-76250771D01*
X110425125Y-76250771D02*
X110663220Y-76250771D01*
X110663220Y-76250771D02*
X110758458Y-76298390D01*
X110758458Y-76298390D02*
X110806077Y-76346009D01*
X110806077Y-76346009D02*
X110853696Y-76441247D01*
X110853696Y-76441247D02*
X110853696Y-76679342D01*
X110853696Y-76679342D02*
X110806077Y-76774580D01*
X110806077Y-76774580D02*
X110758458Y-76822200D01*
X110758458Y-76822200D02*
X110663220Y-76869819D01*
X110663220Y-76869819D02*
X110425125Y-76869819D01*
X110425125Y-76869819D02*
X110329887Y-76822200D01*
X110329887Y-76822200D02*
X110282268Y-76774580D01*
X111139411Y-75869819D02*
X111472744Y-76869819D01*
X111472744Y-76869819D02*
X111806077Y-75869819D01*
X122544819Y-75096666D02*
X122068628Y-75429999D01*
X122544819Y-75668094D02*
X121544819Y-75668094D01*
X121544819Y-75668094D02*
X121544819Y-75287142D01*
X121544819Y-75287142D02*
X121592438Y-75191904D01*
X121592438Y-75191904D02*
X121640057Y-75144285D01*
X121640057Y-75144285D02*
X121735295Y-75096666D01*
X121735295Y-75096666D02*
X121878152Y-75096666D01*
X121878152Y-75096666D02*
X121973390Y-75144285D01*
X121973390Y-75144285D02*
X122021009Y-75191904D01*
X122021009Y-75191904D02*
X122068628Y-75287142D01*
X122068628Y-75287142D02*
X122068628Y-75668094D01*
X122544819Y-74144285D02*
X122544819Y-74715713D01*
X122544819Y-74429999D02*
X121544819Y-74429999D01*
X121544819Y-74429999D02*
X121687676Y-74525237D01*
X121687676Y-74525237D02*
X121782914Y-74620475D01*
X121782914Y-74620475D02*
X121830533Y-74715713D01*
X123721905Y-69454819D02*
X123721905Y-68454819D01*
X123721905Y-68454819D02*
X123960000Y-68454819D01*
X123960000Y-68454819D02*
X124102857Y-68502438D01*
X124102857Y-68502438D02*
X124198095Y-68597676D01*
X124198095Y-68597676D02*
X124245714Y-68692914D01*
X124245714Y-68692914D02*
X124293333Y-68883390D01*
X124293333Y-68883390D02*
X124293333Y-69026247D01*
X124293333Y-69026247D02*
X124245714Y-69216723D01*
X124245714Y-69216723D02*
X124198095Y-69311961D01*
X124198095Y-69311961D02*
X124102857Y-69407200D01*
X124102857Y-69407200D02*
X123960000Y-69454819D01*
X123960000Y-69454819D02*
X123721905Y-69454819D01*
X125245714Y-69454819D02*
X124674286Y-69454819D01*
X124960000Y-69454819D02*
X124960000Y-68454819D01*
X124960000Y-68454819D02*
X124864762Y-68597676D01*
X124864762Y-68597676D02*
X124769524Y-68692914D01*
X124769524Y-68692914D02*
X124674286Y-68740533D01*
D12*
%TO.C,J1*%
X112970000Y-67310000D02*
X112970000Y-80070000D01*
X112970000Y-67310000D02*
X115630000Y-67310000D01*
X112970000Y-80070000D02*
X115630000Y-80070000D01*
X114300000Y-64710000D02*
X115630000Y-64710000D01*
X115630000Y-64710000D02*
X115630000Y-66040000D01*
X115630000Y-67310000D02*
X115630000Y-80070000D01*
%TO.C,R1*%
X123090000Y-71660000D02*
X123090000Y-78200000D01*
X123090000Y-78200000D02*
X125830000Y-78200000D01*
X124460000Y-70890000D02*
X124460000Y-71660000D01*
X124460000Y-78970000D02*
X124460000Y-78200000D01*
X125830000Y-71660000D02*
X123090000Y-71660000D01*
X125830000Y-78200000D02*
X125830000Y-71660000D01*
%TO.C,REF\u002A\u002A*%
X104670000Y-77670000D02*
X106000000Y-77670000D01*
X104670000Y-79000000D02*
X104670000Y-77670000D01*
X104670000Y-80270000D02*
X104670000Y-80330000D01*
X104670000Y-80270000D02*
X107330000Y-80270000D01*
X104670000Y-80330000D02*
X107330000Y-80330000D01*
X107330000Y-80270000D02*
X107330000Y-80330000D01*
%TO.C,J3*%
X132965000Y-76245000D02*
X132965000Y-74915000D01*
X134075000Y-76245000D02*
X132965000Y-76245000D01*
X135565000Y-69475000D02*
X135125000Y-69475000D01*
X135565000Y-70195000D02*
X135125000Y-70195000D01*
X135565000Y-72015000D02*
X135125000Y-72015000D01*
X135565000Y-72735000D02*
X135125000Y-72735000D01*
X135565000Y-74555000D02*
X135185000Y-74555000D01*
X135565000Y-75275000D02*
X135185000Y-75275000D01*
X138075000Y-69475000D02*
X137665000Y-69475000D01*
X138075000Y-70195000D02*
X137665000Y-70195000D01*
X138075000Y-72015000D02*
X137665000Y-72015000D01*
X138075000Y-72735000D02*
X137665000Y-72735000D01*
X138075000Y-74555000D02*
X137665000Y-74555000D01*
X138075000Y-75275000D02*
X137665000Y-75275000D01*
X138075000Y-76245000D02*
X138075000Y-68505000D01*
X146705000Y-68505000D02*
X138075000Y-68505000D01*
X146705000Y-71105000D02*
X138075000Y-71105000D01*
X146705000Y-73645000D02*
X138075000Y-73645000D01*
X146705000Y-73763100D02*
X138075000Y-73763100D01*
X146705000Y-73881195D02*
X138075000Y-73881195D01*
X146705000Y-73999290D02*
X138075000Y-73999290D01*
X146705000Y-74117385D02*
X138075000Y-74117385D01*
X146705000Y-74235480D02*
X138075000Y-74235480D01*
X146705000Y-74353575D02*
X138075000Y-74353575D01*
X146705000Y-74471670D02*
X138075000Y-74471670D01*
X146705000Y-74589765D02*
X138075000Y-74589765D01*
X146705000Y-74707860D02*
X138075000Y-74707860D01*
X146705000Y-74825955D02*
X138075000Y-74825955D01*
X146705000Y-74944050D02*
X138075000Y-74944050D01*
X146705000Y-75062145D02*
X138075000Y-75062145D01*
X146705000Y-75180240D02*
X138075000Y-75180240D01*
X146705000Y-75298335D02*
X138075000Y-75298335D01*
X146705000Y-75416430D02*
X138075000Y-75416430D01*
X146705000Y-75534525D02*
X138075000Y-75534525D01*
X146705000Y-75652620D02*
X138075000Y-75652620D01*
X146705000Y-75770715D02*
X138075000Y-75770715D01*
X146705000Y-75888810D02*
X138075000Y-75888810D01*
X146705000Y-76006905D02*
X138075000Y-76006905D01*
X146705000Y-76125000D02*
X138075000Y-76125000D01*
X146705000Y-76245000D02*
X138075000Y-76245000D01*
X146705000Y-76245000D02*
X146705000Y-68505000D01*
%TO.C,D1*%
X126020000Y-64960000D02*
X126020000Y-64804000D01*
X126020000Y-67276000D02*
X126020000Y-67120000D01*
X122787665Y-64961392D02*
G75*
G02*
X126020000Y-64804484I1672335J-1078608D01*
G01*
X123418870Y-64960163D02*
G75*
G02*
X125500961Y-64960000I1041130J-1079837D01*
G01*
X125500961Y-67120000D02*
G75*
G02*
X123418870Y-67119837I-1040961J1080000D01*
G01*
X126020000Y-67275516D02*
G75*
G02*
X122787665Y-67118608I-1560000J1235516D01*
G01*
%TO.C,J4*%
X118050000Y-67310000D02*
X118050000Y-80070000D01*
X118050000Y-67310000D02*
X120710000Y-67310000D01*
X118050000Y-80070000D02*
X120710000Y-80070000D01*
X119380000Y-64710000D02*
X120710000Y-64710000D01*
X120710000Y-64710000D02*
X120710000Y-66040000D01*
X120710000Y-67310000D02*
X120710000Y-80070000D01*
%TO.C,REF\u002A\u002A*%
X104670000Y-64670000D02*
X106000000Y-64670000D01*
X104670000Y-66000000D02*
X104670000Y-64670000D01*
X104670000Y-67270000D02*
X104670000Y-67330000D01*
X104670000Y-67270000D02*
X107330000Y-67270000D01*
X104670000Y-67330000D02*
X107330000Y-67330000D01*
X107330000Y-67270000D02*
X107330000Y-67330000D01*
%TO.C,J2*%
X128210000Y-71120000D02*
X128210000Y-76260000D01*
X128210000Y-71120000D02*
X130870000Y-71120000D01*
X128210000Y-76260000D02*
X130870000Y-76260000D01*
X129540000Y-68520000D02*
X130870000Y-68520000D01*
X130870000Y-68520000D02*
X130870000Y-69850000D01*
X130870000Y-71120000D02*
X130870000Y-76260000D01*
%TD*%
M02*
