%TF.GenerationSoftware,KiCad,Pcbnew,8.0.3*%
%TF.CreationDate,2024-07-07T19:01:36+09:00*%
%TF.ProjectId,next_usb_device,6e657874-5f75-4736-925f-646576696365,rev?*%
%TF.SameCoordinates,Original*%
%TF.FileFunction,Copper,L1,Top*%
%TF.FilePolarity,Positive*%
%FSLAX46Y46*%
G04 Gerber Fmt 4.6, Leading zero omitted, Abs format (unit mm)*
G04 Created by KiCad (PCBNEW 8.0.3) date 2024-07-07 19:01:36*
%MOMM*%
%LPD*%
G01*
G04 APERTURE LIST*
%TA.AperFunction,ComponentPad*%
%ADD10R,1.700000X1.700000*%
%TD*%
%TA.AperFunction,ComponentPad*%
%ADD11O,1.700000X1.700000*%
%TD*%
%TA.AperFunction,ComponentPad*%
%ADD12C,1.600000*%
%TD*%
%TA.AperFunction,ComponentPad*%
%ADD13O,1.600000X1.600000*%
%TD*%
%TA.AperFunction,ComponentPad*%
%ADD14R,1.800000X1.800000*%
%TD*%
%TA.AperFunction,ComponentPad*%
%ADD15C,1.800000*%
%TD*%
%TA.AperFunction,Conductor*%
%ADD16C,0.500000*%
%TD*%
G04 APERTURE END LIST*
D10*
%TO.P,J1,1,Pin_1*%
%TO.N,CONN*%
X114300000Y-66040000D03*
D11*
%TO.P,J1,2,Pin_2*%
%TO.N,UNUSE*%
X114300000Y-68580000D03*
%TO.P,J1,3,Pin_3*%
%TO.N,CW{slash}CCW*%
X114300000Y-71120000D03*
%TO.P,J1,4,Pin_4*%
%TO.N,PWM*%
X114300000Y-73660000D03*
%TO.P,J1,5,Pin_5*%
%TO.N,GND*%
X114300000Y-76200000D03*
%TO.P,J1,6,Pin_6*%
%TO.N,+5V*%
X114300000Y-78740000D03*
%TD*%
D12*
%TO.P,R1,1*%
%TO.N,+5V*%
X124460000Y-80010000D03*
D13*
%TO.P,R1,2*%
%TO.N,Net-(D1-A)*%
X124460000Y-69850000D03*
%TD*%
D10*
%TO.P,REF\u002A\u002A,1*%
%TO.N,N/C*%
X106000000Y-79000000D03*
%TD*%
%TO.P,J3,1,Pin_1*%
%TO.N,GND*%
X134075000Y-74915000D03*
D11*
%TO.P,J3,2,Pin_2*%
%TO.N,CW{slash}CCW*%
X136615000Y-74915000D03*
%TO.P,J3,3,Pin_3*%
%TO.N,PWM*%
X134075000Y-72375000D03*
%TO.P,J3,4,Pin_4*%
X136615000Y-72375000D03*
%TO.P,J3,5,Pin_5*%
%TO.N,CW{slash}CCW*%
X134075000Y-69835000D03*
%TO.P,J3,6,Pin_6*%
%TO.N,GND*%
X136615000Y-69835000D03*
%TD*%
D14*
%TO.P,D1,1,K*%
%TO.N,GND*%
X125730000Y-66040000D03*
D15*
%TO.P,D1,2,A*%
%TO.N,Net-(D1-A)*%
X123190000Y-66040000D03*
%TD*%
D10*
%TO.P,J4,1,Pin_1*%
%TO.N,CONN*%
X119380000Y-66040000D03*
D11*
%TO.P,J4,2,Pin_2*%
%TO.N,UNUSE*%
X119380000Y-68580000D03*
%TO.P,J4,3,Pin_3*%
%TO.N,CW{slash}CCW*%
X119380000Y-71120000D03*
%TO.P,J4,4,Pin_4*%
%TO.N,PWM*%
X119380000Y-73660000D03*
%TO.P,J4,5,Pin_5*%
%TO.N,GND*%
X119380000Y-76200000D03*
%TO.P,J4,6,Pin_6*%
%TO.N,+5V*%
X119380000Y-78740000D03*
%TD*%
D10*
%TO.P,REF\u002A\u002A,1*%
%TO.N,N/C*%
X106000000Y-66000000D03*
%TD*%
%TO.P,J2,1,Pin_1*%
%TO.N,PWM*%
X129540000Y-69850000D03*
D11*
%TO.P,J2,2,Pin_2*%
%TO.N,+5V*%
X129540000Y-72390000D03*
%TO.P,J2,3,Pin_3*%
%TO.N,GND*%
X129540000Y-74930000D03*
%TD*%
D16*
%TO.N,GND*%
X128270000Y-76200000D02*
X129540000Y-74930000D01*
X134060000Y-74930000D02*
X134075000Y-74915000D01*
X129540000Y-74930000D02*
X134060000Y-74930000D01*
X119380000Y-76200000D02*
X128270000Y-76200000D01*
X136615000Y-69835000D02*
X136615000Y-68580000D01*
X136615000Y-68035000D02*
X135890000Y-67310000D01*
X114300000Y-76200000D02*
X119380000Y-76200000D01*
%TO.N,Net-(D1-A)*%
X123190000Y-68580000D02*
X124460000Y-69850000D01*
X123190000Y-66040000D02*
X123190000Y-68580000D01*
%TO.N,CW{slash}CCW*%
X132540000Y-68300000D02*
X128200000Y-68300000D01*
X128200000Y-68300000D02*
X125380000Y-71120000D01*
X134075000Y-69835000D02*
X132540000Y-68300000D01*
X125380000Y-71120000D02*
X119380000Y-71120000D01*
X114300000Y-71120000D02*
X119380000Y-71120000D01*
%TO.N,CONN*%
X114300000Y-66040000D02*
X119380000Y-66040000D01*
%TO.N,+5V*%
X114300000Y-78740000D02*
X119380000Y-78740000D01*
%TO.N,PWM*%
X125730000Y-73660000D02*
X129540000Y-69850000D01*
X131550000Y-69850000D02*
X134075000Y-72375000D01*
X134075000Y-72375000D02*
X136615000Y-72375000D01*
X119380000Y-73660000D02*
X125730000Y-73660000D01*
X114300000Y-73660000D02*
X119380000Y-73660000D01*
X129540000Y-69850000D02*
X131550000Y-69850000D01*
%TO.N,UNUSE*%
X114300000Y-68580000D02*
X119380000Y-68580000D01*
%TD*%
%TA.AperFunction,Conductor*%
%TO.N,GND*%
G36*
X137442539Y-63520185D02*
G01*
X137488294Y-63572989D01*
X137499500Y-63624500D01*
X137499500Y-68568085D01*
X137479815Y-68635124D01*
X137427011Y-68680879D01*
X137357853Y-68690823D01*
X137304380Y-68669662D01*
X137292585Y-68661404D01*
X137292579Y-68661400D01*
X137078492Y-68561570D01*
X137078486Y-68561567D01*
X136865000Y-68504364D01*
X136865000Y-69401988D01*
X136807993Y-69369075D01*
X136680826Y-69335000D01*
X136549174Y-69335000D01*
X136422007Y-69369075D01*
X136365000Y-69401988D01*
X136365000Y-68504364D01*
X136364999Y-68504364D01*
X136151513Y-68561567D01*
X136151507Y-68561570D01*
X135937422Y-68661399D01*
X135937420Y-68661400D01*
X135743926Y-68796886D01*
X135743920Y-68796891D01*
X135576891Y-68963920D01*
X135576890Y-68963922D01*
X135446880Y-69149595D01*
X135392303Y-69193219D01*
X135322804Y-69200412D01*
X135260450Y-69168890D01*
X135243730Y-69149594D01*
X135113494Y-68963597D01*
X134946402Y-68796506D01*
X134946395Y-68796501D01*
X134752834Y-68660967D01*
X134752830Y-68660965D01*
X134697414Y-68635124D01*
X134538663Y-68561097D01*
X134538659Y-68561096D01*
X134538655Y-68561094D01*
X134310413Y-68499938D01*
X134310403Y-68499936D01*
X134075001Y-68479341D01*
X134074998Y-68479341D01*
X133861986Y-68497977D01*
X133793486Y-68484210D01*
X133763498Y-68462130D01*
X133018421Y-67717052D01*
X133018414Y-67717046D01*
X132944729Y-67667812D01*
X132944729Y-67667813D01*
X132895491Y-67634913D01*
X132758917Y-67578343D01*
X132758907Y-67578340D01*
X132613920Y-67549500D01*
X132613918Y-67549500D01*
X128273917Y-67549500D01*
X128126082Y-67549500D01*
X128126080Y-67549500D01*
X127981092Y-67578340D01*
X127981082Y-67578343D01*
X127844511Y-67634912D01*
X127844498Y-67634919D01*
X127721584Y-67717048D01*
X127721580Y-67717051D01*
X125912230Y-69526400D01*
X125850907Y-69559885D01*
X125781215Y-69554901D01*
X125725282Y-69513029D01*
X125704774Y-69470812D01*
X125686741Y-69403511D01*
X125686738Y-69403502D01*
X125620226Y-69260868D01*
X125590568Y-69197266D01*
X125460047Y-69010861D01*
X125460045Y-69010858D01*
X125299141Y-68849954D01*
X125112734Y-68719432D01*
X125112732Y-68719431D01*
X124906497Y-68623261D01*
X124906488Y-68623258D01*
X124686697Y-68564366D01*
X124686693Y-68564365D01*
X124686692Y-68564365D01*
X124686691Y-68564364D01*
X124686686Y-68564364D01*
X124460002Y-68544532D01*
X124459997Y-68544532D01*
X124293137Y-68559129D01*
X124224637Y-68545362D01*
X124194650Y-68523282D01*
X123976819Y-68305451D01*
X123943334Y-68244128D01*
X123940500Y-68217770D01*
X123940500Y-67291198D01*
X123960185Y-67224159D01*
X123988338Y-67193344D01*
X124141784Y-67073913D01*
X124150511Y-67064432D01*
X124210394Y-67028441D01*
X124280232Y-67030538D01*
X124337850Y-67070060D01*
X124357924Y-67105080D01*
X124386645Y-67182086D01*
X124386649Y-67182093D01*
X124472809Y-67297187D01*
X124472812Y-67297190D01*
X124587906Y-67383350D01*
X124587913Y-67383354D01*
X124722620Y-67433596D01*
X124722627Y-67433598D01*
X124782155Y-67439999D01*
X124782172Y-67440000D01*
X125480000Y-67440000D01*
X125480000Y-66415277D01*
X125556306Y-66459333D01*
X125670756Y-66490000D01*
X125789244Y-66490000D01*
X125903694Y-66459333D01*
X125980000Y-66415277D01*
X125980000Y-67440000D01*
X126677828Y-67440000D01*
X126677844Y-67439999D01*
X126737372Y-67433598D01*
X126737379Y-67433596D01*
X126872086Y-67383354D01*
X126872093Y-67383350D01*
X126987187Y-67297190D01*
X126987190Y-67297187D01*
X127073350Y-67182093D01*
X127073354Y-67182086D01*
X127123596Y-67047379D01*
X127123598Y-67047372D01*
X127129999Y-66987844D01*
X127130000Y-66987827D01*
X127130000Y-66290000D01*
X126105278Y-66290000D01*
X126149333Y-66213694D01*
X126180000Y-66099244D01*
X126180000Y-65980756D01*
X126149333Y-65866306D01*
X126105278Y-65790000D01*
X127130000Y-65790000D01*
X127130000Y-65092172D01*
X127129999Y-65092155D01*
X127123598Y-65032627D01*
X127123596Y-65032620D01*
X127073354Y-64897913D01*
X127073350Y-64897906D01*
X126987190Y-64782812D01*
X126987187Y-64782809D01*
X126872093Y-64696649D01*
X126872086Y-64696645D01*
X126737379Y-64646403D01*
X126737372Y-64646401D01*
X126677844Y-64640000D01*
X125980000Y-64640000D01*
X125980000Y-65664722D01*
X125903694Y-65620667D01*
X125789244Y-65590000D01*
X125670756Y-65590000D01*
X125556306Y-65620667D01*
X125480000Y-65664722D01*
X125480000Y-64640000D01*
X124782155Y-64640000D01*
X124722627Y-64646401D01*
X124722620Y-64646403D01*
X124587913Y-64696645D01*
X124587906Y-64696649D01*
X124472812Y-64782809D01*
X124472809Y-64782812D01*
X124386649Y-64897906D01*
X124386646Y-64897911D01*
X124357924Y-64974920D01*
X124316052Y-65030853D01*
X124250588Y-65055270D01*
X124182315Y-65040418D01*
X124150514Y-65015571D01*
X124141784Y-65006087D01*
X124141779Y-65006083D01*
X124141777Y-65006081D01*
X123958634Y-64863535D01*
X123958628Y-64863531D01*
X123754504Y-64753064D01*
X123754495Y-64753061D01*
X123534984Y-64677702D01*
X123347404Y-64646401D01*
X123306049Y-64639500D01*
X123073951Y-64639500D01*
X123032596Y-64646401D01*
X122845015Y-64677702D01*
X122625504Y-64753061D01*
X122625495Y-64753064D01*
X122421371Y-64863531D01*
X122421365Y-64863535D01*
X122238222Y-65006081D01*
X122238219Y-65006084D01*
X122238216Y-65006086D01*
X122238216Y-65006087D01*
X122213791Y-65032620D01*
X122081016Y-65176852D01*
X121954075Y-65371151D01*
X121860842Y-65583699D01*
X121803866Y-65808691D01*
X121803864Y-65808702D01*
X121784700Y-66039993D01*
X121784700Y-66040006D01*
X121803864Y-66271297D01*
X121803866Y-66271308D01*
X121860842Y-66496300D01*
X121954075Y-66708848D01*
X122081016Y-66903147D01*
X122081019Y-66903151D01*
X122081021Y-66903153D01*
X122238216Y-67073913D01*
X122391662Y-67193344D01*
X122432475Y-67250055D01*
X122439500Y-67291198D01*
X122439500Y-68653918D01*
X122439500Y-68653920D01*
X122439499Y-68653920D01*
X122468340Y-68798907D01*
X122468343Y-68798917D01*
X122524913Y-68935490D01*
X122524914Y-68935491D01*
X122524916Y-68935495D01*
X122544687Y-68965084D01*
X122602945Y-69052276D01*
X122607051Y-69058420D01*
X122607052Y-69058421D01*
X123133282Y-69584650D01*
X123166767Y-69645973D01*
X123169129Y-69683137D01*
X123154532Y-69849996D01*
X123154532Y-69850001D01*
X123174364Y-70076686D01*
X123174366Y-70076697D01*
X123210997Y-70213407D01*
X123209334Y-70283257D01*
X123170171Y-70341119D01*
X123105943Y-70368623D01*
X123091222Y-70369500D01*
X120567701Y-70369500D01*
X120500662Y-70349815D01*
X120466126Y-70316623D01*
X120418494Y-70248597D01*
X120251402Y-70081506D01*
X120251396Y-70081501D01*
X120065842Y-69951575D01*
X120022217Y-69896998D01*
X120015023Y-69827500D01*
X120046546Y-69765145D01*
X120065842Y-69748425D01*
X120159031Y-69683173D01*
X120251401Y-69618495D01*
X120418495Y-69451401D01*
X120554035Y-69257830D01*
X120653903Y-69043663D01*
X120715063Y-68815408D01*
X120735659Y-68580000D01*
X120732628Y-68545362D01*
X120715063Y-68344596D01*
X120715063Y-68344592D01*
X120653903Y-68116337D01*
X120554035Y-67902171D01*
X120503150Y-67829500D01*
X120418496Y-67708600D01*
X120377708Y-67667812D01*
X120296567Y-67586671D01*
X120263084Y-67525351D01*
X120268068Y-67455659D01*
X120309939Y-67399725D01*
X120340915Y-67382810D01*
X120472331Y-67333796D01*
X120587546Y-67247546D01*
X120673796Y-67132331D01*
X120724091Y-66997483D01*
X120730500Y-66937873D01*
X120730499Y-65142128D01*
X120724091Y-65082517D01*
X120705483Y-65032627D01*
X120673797Y-64947671D01*
X120673793Y-64947664D01*
X120587547Y-64832455D01*
X120587544Y-64832452D01*
X120472335Y-64746206D01*
X120472328Y-64746202D01*
X120337482Y-64695908D01*
X120337483Y-64695908D01*
X120277883Y-64689501D01*
X120277881Y-64689500D01*
X120277873Y-64689500D01*
X120277864Y-64689500D01*
X118482129Y-64689500D01*
X118482123Y-64689501D01*
X118422516Y-64695908D01*
X118287671Y-64746202D01*
X118287664Y-64746206D01*
X118172455Y-64832452D01*
X118172452Y-64832455D01*
X118086206Y-64947664D01*
X118086202Y-64947671D01*
X118035908Y-65082517D01*
X118029501Y-65142116D01*
X118029501Y-65142123D01*
X118029500Y-65142135D01*
X118029500Y-65165500D01*
X118009815Y-65232539D01*
X117957011Y-65278294D01*
X117905500Y-65289500D01*
X115774499Y-65289500D01*
X115707460Y-65269815D01*
X115661705Y-65217011D01*
X115650499Y-65165500D01*
X115650499Y-65142129D01*
X115650498Y-65142123D01*
X115650497Y-65142116D01*
X115644091Y-65082517D01*
X115625483Y-65032627D01*
X115593797Y-64947671D01*
X115593793Y-64947664D01*
X115507547Y-64832455D01*
X115507544Y-64832452D01*
X115392335Y-64746206D01*
X115392328Y-64746202D01*
X115257482Y-64695908D01*
X115257483Y-64695908D01*
X115197883Y-64689501D01*
X115197881Y-64689500D01*
X115197873Y-64689500D01*
X115197864Y-64689500D01*
X113402129Y-64689500D01*
X113402123Y-64689501D01*
X113342516Y-64695908D01*
X113207671Y-64746202D01*
X113207664Y-64746206D01*
X113092455Y-64832452D01*
X113092452Y-64832455D01*
X113006206Y-64947664D01*
X113006202Y-64947671D01*
X112955908Y-65082517D01*
X112949501Y-65142116D01*
X112949501Y-65142123D01*
X112949500Y-65142135D01*
X112949500Y-66937870D01*
X112949501Y-66937876D01*
X112955908Y-66997483D01*
X113006202Y-67132328D01*
X113006206Y-67132335D01*
X113092452Y-67247544D01*
X113092455Y-67247547D01*
X113207664Y-67333793D01*
X113207671Y-67333797D01*
X113339081Y-67382810D01*
X113395015Y-67424681D01*
X113419432Y-67490145D01*
X113404580Y-67558418D01*
X113383430Y-67586673D01*
X113261503Y-67708600D01*
X113125965Y-67902169D01*
X113125964Y-67902171D01*
X113026098Y-68116335D01*
X113026094Y-68116344D01*
X112964938Y-68344586D01*
X112964936Y-68344596D01*
X112944341Y-68579999D01*
X112944341Y-68580000D01*
X112964936Y-68815403D01*
X112964938Y-68815413D01*
X113026094Y-69043655D01*
X113026096Y-69043659D01*
X113026097Y-69043663D01*
X113104696Y-69212218D01*
X113125965Y-69257830D01*
X113125967Y-69257834D01*
X113261501Y-69451395D01*
X113261506Y-69451402D01*
X113428597Y-69618493D01*
X113428603Y-69618498D01*
X113614158Y-69748425D01*
X113657783Y-69803002D01*
X113664977Y-69872500D01*
X113633454Y-69934855D01*
X113614158Y-69951575D01*
X113428597Y-70081505D01*
X113261505Y-70248597D01*
X113125965Y-70442169D01*
X113125964Y-70442171D01*
X113026098Y-70656335D01*
X113026094Y-70656344D01*
X112964938Y-70884586D01*
X112964936Y-70884596D01*
X112944341Y-71119999D01*
X112944341Y-71120000D01*
X112964936Y-71355403D01*
X112964938Y-71355413D01*
X113026094Y-71583655D01*
X113026096Y-71583659D01*
X113026097Y-71583663D01*
X113097701Y-71737217D01*
X113125965Y-71797830D01*
X113125967Y-71797834D01*
X113261501Y-71991395D01*
X113261506Y-71991402D01*
X113428597Y-72158493D01*
X113428603Y-72158498D01*
X113614158Y-72288425D01*
X113657783Y-72343002D01*
X113664977Y-72412500D01*
X113633454Y-72474855D01*
X113614158Y-72491575D01*
X113428597Y-72621505D01*
X113261505Y-72788597D01*
X113125965Y-72982169D01*
X113125964Y-72982171D01*
X113026098Y-73196335D01*
X113026094Y-73196344D01*
X112964938Y-73424586D01*
X112964936Y-73424596D01*
X112944341Y-73659999D01*
X112944341Y-73660000D01*
X112964936Y-73895403D01*
X112964938Y-73895413D01*
X113026094Y-74123655D01*
X113026096Y-74123659D01*
X113026097Y-74123663D01*
X113097701Y-74277217D01*
X113125965Y-74337830D01*
X113125967Y-74337834D01*
X113261501Y-74531395D01*
X113261506Y-74531402D01*
X113428597Y-74698493D01*
X113428603Y-74698498D01*
X113483600Y-74737007D01*
X113557853Y-74789000D01*
X113614594Y-74828730D01*
X113658219Y-74883307D01*
X113665413Y-74952805D01*
X113633890Y-75015160D01*
X113614595Y-75031880D01*
X113428922Y-75161890D01*
X113428920Y-75161891D01*
X113261891Y-75328920D01*
X113261886Y-75328926D01*
X113126400Y-75522420D01*
X113126399Y-75522422D01*
X113026570Y-75736507D01*
X113026567Y-75736513D01*
X112969364Y-75949999D01*
X112969364Y-75950000D01*
X113866988Y-75950000D01*
X113834075Y-76007007D01*
X113800000Y-76134174D01*
X113800000Y-76265826D01*
X113834075Y-76392993D01*
X113866988Y-76450000D01*
X112969364Y-76450000D01*
X113026567Y-76663486D01*
X113026570Y-76663492D01*
X113126399Y-76877578D01*
X113261894Y-77071082D01*
X113428917Y-77238105D01*
X113614595Y-77368119D01*
X113658219Y-77422696D01*
X113665412Y-77492195D01*
X113633890Y-77554549D01*
X113614595Y-77571269D01*
X113428594Y-77701508D01*
X113261505Y-77868597D01*
X113125965Y-78062169D01*
X113125964Y-78062171D01*
X113026098Y-78276335D01*
X113026094Y-78276344D01*
X112964938Y-78504586D01*
X112964936Y-78504596D01*
X112944341Y-78739999D01*
X112944341Y-78740000D01*
X112964936Y-78975403D01*
X112964938Y-78975413D01*
X113026094Y-79203655D01*
X113026096Y-79203659D01*
X113026097Y-79203663D01*
X113097724Y-79357267D01*
X113125965Y-79417830D01*
X113125967Y-79417834D01*
X113213873Y-79543376D01*
X113261505Y-79611401D01*
X113428599Y-79778495D01*
X113435473Y-79783308D01*
X113622165Y-79914032D01*
X113622167Y-79914033D01*
X113622170Y-79914035D01*
X113836337Y-80013903D01*
X114064592Y-80075063D01*
X114252918Y-80091539D01*
X114299999Y-80095659D01*
X114300000Y-80095659D01*
X114300001Y-80095659D01*
X114339234Y-80092226D01*
X114535408Y-80075063D01*
X114763663Y-80013903D01*
X114977830Y-79914035D01*
X115171401Y-79778495D01*
X115338495Y-79611401D01*
X115386127Y-79543376D01*
X115440704Y-79499751D01*
X115487701Y-79490500D01*
X118192299Y-79490500D01*
X118259338Y-79510185D01*
X118293873Y-79543376D01*
X118307967Y-79563504D01*
X118341505Y-79611401D01*
X118508599Y-79778495D01*
X118515473Y-79783308D01*
X118702165Y-79914032D01*
X118702167Y-79914033D01*
X118702170Y-79914035D01*
X118916337Y-80013903D01*
X119144592Y-80075063D01*
X119332918Y-80091539D01*
X119379999Y-80095659D01*
X119380000Y-80095659D01*
X119380001Y-80095659D01*
X119419234Y-80092226D01*
X119615408Y-80075063D01*
X119843663Y-80013903D01*
X120057830Y-79914035D01*
X120251401Y-79778495D01*
X120418495Y-79611401D01*
X120554035Y-79417830D01*
X120653903Y-79203663D01*
X120715063Y-78975408D01*
X120735659Y-78740000D01*
X120715063Y-78504592D01*
X120653903Y-78276337D01*
X120554035Y-78062171D01*
X120540274Y-78042517D01*
X120418494Y-77868597D01*
X120251402Y-77701506D01*
X120251401Y-77701505D01*
X120065405Y-77571269D01*
X120021781Y-77516692D01*
X120014588Y-77447193D01*
X120046110Y-77384839D01*
X120065405Y-77368119D01*
X120251082Y-77238105D01*
X120418105Y-77071082D01*
X120553600Y-76877578D01*
X120653429Y-76663492D01*
X120653432Y-76663486D01*
X120710636Y-76450000D01*
X119813012Y-76450000D01*
X119845925Y-76392993D01*
X119880000Y-76265826D01*
X119880000Y-76134174D01*
X119845925Y-76007007D01*
X119813012Y-75950000D01*
X120710636Y-75950000D01*
X120710635Y-75949999D01*
X120653432Y-75736513D01*
X120653429Y-75736507D01*
X120553600Y-75522422D01*
X120553599Y-75522420D01*
X120418113Y-75328926D01*
X120418108Y-75328920D01*
X120251078Y-75161890D01*
X120065405Y-75031879D01*
X120021780Y-74977302D01*
X120014588Y-74907804D01*
X120046110Y-74845449D01*
X120065406Y-74828730D01*
X120251401Y-74698495D01*
X120418495Y-74531401D01*
X120463930Y-74466513D01*
X120466127Y-74463376D01*
X120520704Y-74419751D01*
X120567701Y-74410500D01*
X125803920Y-74410500D01*
X125901462Y-74391096D01*
X125948913Y-74381658D01*
X126085495Y-74325084D01*
X126157132Y-74277218D01*
X126208416Y-74242952D01*
X127986415Y-72464950D01*
X128047738Y-72431466D01*
X128117429Y-72436450D01*
X128173363Y-72478321D01*
X128197624Y-72541824D01*
X128204936Y-72625403D01*
X128204938Y-72625413D01*
X128266094Y-72853655D01*
X128266096Y-72853659D01*
X128266097Y-72853663D01*
X128358970Y-73052830D01*
X128365965Y-73067830D01*
X128365967Y-73067834D01*
X128501501Y-73261395D01*
X128501506Y-73261402D01*
X128668597Y-73428493D01*
X128668603Y-73428498D01*
X128854594Y-73558730D01*
X128898219Y-73613307D01*
X128905413Y-73682805D01*
X128873890Y-73745160D01*
X128854595Y-73761880D01*
X128668922Y-73891890D01*
X128668920Y-73891891D01*
X128501891Y-74058920D01*
X128501886Y-74058926D01*
X128366400Y-74252420D01*
X128366399Y-74252422D01*
X128266570Y-74466507D01*
X128266567Y-74466513D01*
X128209364Y-74679999D01*
X128209364Y-74680000D01*
X129106988Y-74680000D01*
X129074075Y-74737007D01*
X129040000Y-74864174D01*
X129040000Y-74995826D01*
X129074075Y-75122993D01*
X129106988Y-75180000D01*
X128209364Y-75180000D01*
X128266567Y-75393486D01*
X128266570Y-75393492D01*
X128366399Y-75607578D01*
X128501894Y-75801082D01*
X128668917Y-75968105D01*
X128862421Y-76103600D01*
X129076507Y-76203429D01*
X129076516Y-76203433D01*
X129290000Y-76260634D01*
X129290000Y-75363012D01*
X129347007Y-75395925D01*
X129474174Y-75430000D01*
X129605826Y-75430000D01*
X129732993Y-75395925D01*
X129790000Y-75363012D01*
X129790000Y-76260633D01*
X130003483Y-76203433D01*
X130003492Y-76203429D01*
X130217578Y-76103600D01*
X130411082Y-75968105D01*
X130578105Y-75801082D01*
X130713600Y-75607578D01*
X130813429Y-75393492D01*
X130813432Y-75393486D01*
X130870636Y-75180000D01*
X129973012Y-75180000D01*
X130005925Y-75122993D01*
X130040000Y-74995826D01*
X130040000Y-74864174D01*
X130005925Y-74737007D01*
X129973012Y-74680000D01*
X130870636Y-74680000D01*
X130870635Y-74679999D01*
X130813432Y-74466513D01*
X130813429Y-74466507D01*
X130713600Y-74252422D01*
X130713599Y-74252420D01*
X130578113Y-74058926D01*
X130578108Y-74058920D01*
X130411078Y-73891890D01*
X130225405Y-73761879D01*
X130181780Y-73707302D01*
X130174588Y-73637804D01*
X130206110Y-73575449D01*
X130225406Y-73558730D01*
X130358922Y-73465241D01*
X130411401Y-73428495D01*
X130578495Y-73261401D01*
X130714035Y-73067830D01*
X130813903Y-72853663D01*
X130875063Y-72625408D01*
X130895659Y-72390000D01*
X130893690Y-72367500D01*
X130883868Y-72255235D01*
X130875063Y-72154592D01*
X130813903Y-71926337D01*
X130714035Y-71712171D01*
X130707578Y-71702950D01*
X130578496Y-71518600D01*
X130563492Y-71503596D01*
X130456567Y-71396671D01*
X130423084Y-71335351D01*
X130428068Y-71265659D01*
X130469939Y-71209725D01*
X130500915Y-71192810D01*
X130632331Y-71143796D01*
X130747546Y-71057546D01*
X130833796Y-70942331D01*
X130884091Y-70807483D01*
X130890500Y-70747873D01*
X130890500Y-70724500D01*
X130910185Y-70657461D01*
X130962989Y-70611706D01*
X131014500Y-70600500D01*
X131187770Y-70600500D01*
X131254809Y-70620185D01*
X131275451Y-70636819D01*
X131990137Y-71351505D01*
X132702130Y-72063497D01*
X132735615Y-72124820D01*
X132737977Y-72161985D01*
X132719341Y-72374997D01*
X132719341Y-72375000D01*
X132739936Y-72610403D01*
X132739938Y-72610413D01*
X132801094Y-72838655D01*
X132801096Y-72838659D01*
X132801097Y-72838663D01*
X132834129Y-72909500D01*
X132900965Y-73052830D01*
X132900967Y-73052834D01*
X133036501Y-73246395D01*
X133036506Y-73246402D01*
X133158818Y-73368714D01*
X133192303Y-73430037D01*
X133187319Y-73499729D01*
X133145447Y-73555662D01*
X133114471Y-73572577D01*
X132982912Y-73621646D01*
X132982906Y-73621649D01*
X132867812Y-73707809D01*
X132867809Y-73707812D01*
X132781649Y-73822906D01*
X132781645Y-73822913D01*
X132731403Y-73957620D01*
X132731401Y-73957627D01*
X132725000Y-74017155D01*
X132725000Y-74665000D01*
X133641988Y-74665000D01*
X133609075Y-74722007D01*
X133575000Y-74849174D01*
X133575000Y-74980826D01*
X133609075Y-75107993D01*
X133641988Y-75165000D01*
X132725000Y-75165000D01*
X132725000Y-75812844D01*
X132731401Y-75872372D01*
X132731403Y-75872379D01*
X132781645Y-76007086D01*
X132781649Y-76007093D01*
X132867809Y-76122187D01*
X132867812Y-76122190D01*
X132982906Y-76208350D01*
X132982913Y-76208354D01*
X133117620Y-76258596D01*
X133117627Y-76258598D01*
X133177155Y-76264999D01*
X133177172Y-76265000D01*
X133825000Y-76265000D01*
X133825000Y-75348012D01*
X133882007Y-75380925D01*
X134009174Y-75415000D01*
X134140826Y-75415000D01*
X134267993Y-75380925D01*
X134325000Y-75348012D01*
X134325000Y-76265000D01*
X134972828Y-76265000D01*
X134972844Y-76264999D01*
X135032372Y-76258598D01*
X135032379Y-76258596D01*
X135167086Y-76208354D01*
X135167093Y-76208350D01*
X135282187Y-76122190D01*
X135282190Y-76122187D01*
X135368350Y-76007093D01*
X135368354Y-76007086D01*
X135417422Y-75875529D01*
X135459293Y-75819595D01*
X135524757Y-75795178D01*
X135593030Y-75810030D01*
X135621285Y-75831181D01*
X135743599Y-75953495D01*
X135820022Y-76007007D01*
X135937165Y-76089032D01*
X135937167Y-76089033D01*
X135937170Y-76089035D01*
X136151337Y-76188903D01*
X136379592Y-76250063D01*
X136550319Y-76265000D01*
X136614999Y-76270659D01*
X136615000Y-76270659D01*
X136615001Y-76270659D01*
X136679681Y-76265000D01*
X136850408Y-76250063D01*
X137078663Y-76188903D01*
X137292830Y-76089035D01*
X137304375Y-76080950D01*
X137370578Y-76058622D01*
X137438346Y-76075629D01*
X137486161Y-76126575D01*
X137499500Y-76182524D01*
X137499500Y-81375500D01*
X137479815Y-81442539D01*
X137427011Y-81488294D01*
X137375500Y-81499500D01*
X124867733Y-81499500D01*
X124800694Y-81479815D01*
X124754939Y-81427011D01*
X124744995Y-81357853D01*
X124774020Y-81294297D01*
X124832798Y-81256523D01*
X124835640Y-81255725D01*
X124883032Y-81243025D01*
X124906496Y-81236739D01*
X125112734Y-81140568D01*
X125299139Y-81010047D01*
X125460047Y-80849139D01*
X125590568Y-80662734D01*
X125686739Y-80456496D01*
X125745635Y-80236692D01*
X125765468Y-80010000D01*
X125745635Y-79783308D01*
X125686739Y-79563504D01*
X125590568Y-79357266D01*
X125460047Y-79170861D01*
X125460045Y-79170858D01*
X125299141Y-79009954D01*
X125112734Y-78879432D01*
X125112732Y-78879431D01*
X124906497Y-78783261D01*
X124906488Y-78783258D01*
X124686697Y-78724366D01*
X124686693Y-78724365D01*
X124686692Y-78724365D01*
X124686691Y-78724364D01*
X124686686Y-78724364D01*
X124460002Y-78704532D01*
X124459998Y-78704532D01*
X124233313Y-78724364D01*
X124233302Y-78724366D01*
X124013511Y-78783258D01*
X124013502Y-78783261D01*
X123807267Y-78879431D01*
X123807265Y-78879432D01*
X123620858Y-79009954D01*
X123459954Y-79170858D01*
X123329432Y-79357265D01*
X123329431Y-79357267D01*
X123233261Y-79563502D01*
X123233258Y-79563511D01*
X123174366Y-79783302D01*
X123174364Y-79783313D01*
X123154532Y-80009998D01*
X123154532Y-80010001D01*
X123174364Y-80236686D01*
X123174366Y-80236697D01*
X123233258Y-80456488D01*
X123233261Y-80456497D01*
X123329431Y-80662732D01*
X123329432Y-80662734D01*
X123459954Y-80849141D01*
X123620858Y-81010045D01*
X123620861Y-81010047D01*
X123807266Y-81140568D01*
X124013504Y-81236739D01*
X124013509Y-81236740D01*
X124013511Y-81236741D01*
X124084360Y-81255725D01*
X124144021Y-81292090D01*
X124174550Y-81354937D01*
X124166255Y-81424312D01*
X124121770Y-81478190D01*
X124055218Y-81499465D01*
X124052267Y-81499500D01*
X103624500Y-81499500D01*
X103557461Y-81479815D01*
X103511706Y-81427011D01*
X103500500Y-81375500D01*
X103500500Y-78102135D01*
X104649500Y-78102135D01*
X104649500Y-79897870D01*
X104649501Y-79897876D01*
X104655908Y-79957483D01*
X104706202Y-80092328D01*
X104706206Y-80092335D01*
X104792452Y-80207544D01*
X104792455Y-80207547D01*
X104907664Y-80293793D01*
X104907671Y-80293797D01*
X105042517Y-80344091D01*
X105042516Y-80344091D01*
X105049444Y-80344835D01*
X105102127Y-80350500D01*
X106897872Y-80350499D01*
X106957483Y-80344091D01*
X107092331Y-80293796D01*
X107207546Y-80207546D01*
X107293796Y-80092331D01*
X107344091Y-79957483D01*
X107350500Y-79897873D01*
X107350499Y-78102128D01*
X107344091Y-78042517D01*
X107320866Y-77980248D01*
X107293797Y-77907671D01*
X107293793Y-77907664D01*
X107207547Y-77792455D01*
X107207544Y-77792452D01*
X107092335Y-77706206D01*
X107092328Y-77706202D01*
X106957482Y-77655908D01*
X106957483Y-77655908D01*
X106897883Y-77649501D01*
X106897881Y-77649500D01*
X106897873Y-77649500D01*
X106897864Y-77649500D01*
X105102129Y-77649500D01*
X105102123Y-77649501D01*
X105042516Y-77655908D01*
X104907671Y-77706202D01*
X104907664Y-77706206D01*
X104792455Y-77792452D01*
X104792452Y-77792455D01*
X104706206Y-77907664D01*
X104706202Y-77907671D01*
X104655908Y-78042517D01*
X104649501Y-78102116D01*
X104649501Y-78102123D01*
X104649500Y-78102135D01*
X103500500Y-78102135D01*
X103500500Y-65102135D01*
X104649500Y-65102135D01*
X104649500Y-66897870D01*
X104649501Y-66897876D01*
X104655908Y-66957483D01*
X104706202Y-67092328D01*
X104706206Y-67092335D01*
X104792452Y-67207544D01*
X104792455Y-67207547D01*
X104907664Y-67293793D01*
X104907671Y-67293797D01*
X105042517Y-67344091D01*
X105042516Y-67344091D01*
X105049444Y-67344835D01*
X105102127Y-67350500D01*
X106897872Y-67350499D01*
X106957483Y-67344091D01*
X107092331Y-67293796D01*
X107207546Y-67207546D01*
X107293796Y-67092331D01*
X107344091Y-66957483D01*
X107350500Y-66897873D01*
X107350499Y-65102128D01*
X107344091Y-65042517D01*
X107340402Y-65032627D01*
X107293797Y-64907671D01*
X107293793Y-64907664D01*
X107207547Y-64792455D01*
X107207544Y-64792452D01*
X107092335Y-64706206D01*
X107092328Y-64706202D01*
X106957482Y-64655908D01*
X106957483Y-64655908D01*
X106897883Y-64649501D01*
X106897881Y-64649500D01*
X106897873Y-64649500D01*
X106897864Y-64649500D01*
X105102129Y-64649500D01*
X105102123Y-64649501D01*
X105042516Y-64655908D01*
X104907671Y-64706202D01*
X104907664Y-64706206D01*
X104792455Y-64792452D01*
X104792452Y-64792455D01*
X104706206Y-64907664D01*
X104706202Y-64907671D01*
X104655908Y-65042517D01*
X104651608Y-65082516D01*
X104649501Y-65102123D01*
X104649500Y-65102135D01*
X103500500Y-65102135D01*
X103500500Y-63624500D01*
X103520185Y-63557461D01*
X103572989Y-63511706D01*
X103624500Y-63500500D01*
X137375500Y-63500500D01*
X137442539Y-63520185D01*
G37*
%TD.AperFunction*%
%TA.AperFunction,Conductor*%
G36*
X118259338Y-74430185D02*
G01*
X118293873Y-74463376D01*
X118341505Y-74531401D01*
X118508597Y-74698493D01*
X118508603Y-74698498D01*
X118563600Y-74737007D01*
X118637853Y-74789000D01*
X118694594Y-74828730D01*
X118738219Y-74883307D01*
X118745413Y-74952805D01*
X118713890Y-75015160D01*
X118694595Y-75031880D01*
X118508922Y-75161890D01*
X118508920Y-75161891D01*
X118341891Y-75328920D01*
X118341886Y-75328926D01*
X118206400Y-75522420D01*
X118206399Y-75522422D01*
X118106570Y-75736507D01*
X118106567Y-75736513D01*
X118049364Y-75949999D01*
X118049364Y-75950000D01*
X118946988Y-75950000D01*
X118914075Y-76007007D01*
X118880000Y-76134174D01*
X118880000Y-76265826D01*
X118914075Y-76392993D01*
X118946988Y-76450000D01*
X118049364Y-76450000D01*
X118106567Y-76663486D01*
X118106570Y-76663492D01*
X118206399Y-76877578D01*
X118341894Y-77071082D01*
X118508917Y-77238105D01*
X118694595Y-77368119D01*
X118738219Y-77422696D01*
X118745412Y-77492195D01*
X118713890Y-77554549D01*
X118694595Y-77571269D01*
X118508594Y-77701508D01*
X118341506Y-77868596D01*
X118293874Y-77936623D01*
X118239297Y-77980248D01*
X118192299Y-77989500D01*
X115487701Y-77989500D01*
X115420662Y-77969815D01*
X115386126Y-77936623D01*
X115338494Y-77868597D01*
X115171402Y-77701506D01*
X115171401Y-77701505D01*
X114985405Y-77571269D01*
X114941781Y-77516692D01*
X114934588Y-77447193D01*
X114966110Y-77384839D01*
X114985405Y-77368119D01*
X115171082Y-77238105D01*
X115338105Y-77071082D01*
X115473600Y-76877578D01*
X115573429Y-76663492D01*
X115573432Y-76663486D01*
X115630636Y-76450000D01*
X114733012Y-76450000D01*
X114765925Y-76392993D01*
X114800000Y-76265826D01*
X114800000Y-76134174D01*
X114765925Y-76007007D01*
X114733012Y-75950000D01*
X115630636Y-75950000D01*
X115630635Y-75949999D01*
X115573432Y-75736513D01*
X115573429Y-75736507D01*
X115473600Y-75522422D01*
X115473599Y-75522420D01*
X115338113Y-75328926D01*
X115338108Y-75328920D01*
X115171078Y-75161890D01*
X114985405Y-75031879D01*
X114941780Y-74977302D01*
X114934588Y-74907804D01*
X114966110Y-74845449D01*
X114985406Y-74828730D01*
X115171401Y-74698495D01*
X115338495Y-74531401D01*
X115383930Y-74466513D01*
X115386127Y-74463376D01*
X115440704Y-74419751D01*
X115487701Y-74410500D01*
X118192299Y-74410500D01*
X118259338Y-74430185D01*
G37*
%TD.AperFunction*%
%TD*%
%TA.AperFunction,NonConductor*%
G36*
X117972540Y-66810185D02*
G01*
X118018295Y-66862989D01*
X118029501Y-66914500D01*
X118029501Y-66937876D01*
X118035908Y-66997483D01*
X118086202Y-67132328D01*
X118086206Y-67132335D01*
X118172452Y-67247544D01*
X118172455Y-67247547D01*
X118287664Y-67333793D01*
X118287671Y-67333797D01*
X118419081Y-67382810D01*
X118475015Y-67424681D01*
X118499432Y-67490145D01*
X118484580Y-67558418D01*
X118463430Y-67586673D01*
X118341503Y-67708600D01*
X118293874Y-67776623D01*
X118239297Y-67820248D01*
X118192299Y-67829500D01*
X115487701Y-67829500D01*
X115420662Y-67809815D01*
X115386126Y-67776623D01*
X115338496Y-67708600D01*
X115297708Y-67667812D01*
X115216567Y-67586671D01*
X115183084Y-67525351D01*
X115188068Y-67455659D01*
X115229939Y-67399725D01*
X115260915Y-67382810D01*
X115392331Y-67333796D01*
X115507546Y-67247546D01*
X115593796Y-67132331D01*
X115644091Y-66997483D01*
X115650500Y-66937873D01*
X115650500Y-66914500D01*
X115670185Y-66847461D01*
X115722989Y-66801706D01*
X115774500Y-66790500D01*
X117905501Y-66790500D01*
X117972540Y-66810185D01*
G37*
%TD.AperFunction*%
%TA.AperFunction,NonConductor*%
G36*
X132244809Y-69070185D02*
G01*
X132265451Y-69086819D01*
X132702130Y-69523498D01*
X132735615Y-69584821D01*
X132737977Y-69621986D01*
X132732624Y-69683173D01*
X132707172Y-69748242D01*
X132650581Y-69789221D01*
X132580819Y-69793099D01*
X132521415Y-69760047D01*
X132024108Y-69262740D01*
X132025979Y-69260868D01*
X131993105Y-69212595D01*
X131991242Y-69142751D01*
X132027435Y-69082986D01*
X132090194Y-69052276D01*
X132111108Y-69050500D01*
X132177770Y-69050500D01*
X132244809Y-69070185D01*
G37*
%TD.AperFunction*%
%TA.AperFunction,NonConductor*%
G36*
X118259338Y-69350185D02*
G01*
X118293873Y-69383376D01*
X118341505Y-69451401D01*
X118508597Y-69618493D01*
X118508603Y-69618498D01*
X118694158Y-69748425D01*
X118737783Y-69803002D01*
X118744977Y-69872500D01*
X118713454Y-69934855D01*
X118694158Y-69951575D01*
X118508597Y-70081505D01*
X118341506Y-70248596D01*
X118293874Y-70316623D01*
X118239297Y-70360248D01*
X118192299Y-70369500D01*
X115487701Y-70369500D01*
X115420662Y-70349815D01*
X115386126Y-70316623D01*
X115338494Y-70248597D01*
X115171402Y-70081506D01*
X115171396Y-70081501D01*
X114985842Y-69951575D01*
X114942217Y-69896998D01*
X114935023Y-69827500D01*
X114966546Y-69765145D01*
X114985842Y-69748425D01*
X115079031Y-69683173D01*
X115171401Y-69618495D01*
X115338495Y-69451401D01*
X115386127Y-69383376D01*
X115440704Y-69339751D01*
X115487701Y-69330500D01*
X118192299Y-69330500D01*
X118259338Y-69350185D01*
G37*
%TD.AperFunction*%
%TA.AperFunction,NonConductor*%
G36*
X135430160Y-70501110D02*
G01*
X135446879Y-70520405D01*
X135576890Y-70706078D01*
X135743917Y-70873105D01*
X135929595Y-71003119D01*
X135973219Y-71057696D01*
X135980412Y-71127195D01*
X135948890Y-71189549D01*
X135929595Y-71206269D01*
X135743594Y-71336508D01*
X135576506Y-71503596D01*
X135528874Y-71571623D01*
X135474297Y-71615248D01*
X135427299Y-71624500D01*
X135262701Y-71624500D01*
X135195662Y-71604815D01*
X135161126Y-71571623D01*
X135113494Y-71503597D01*
X134946402Y-71336506D01*
X134946396Y-71336501D01*
X134760842Y-71206575D01*
X134717217Y-71151998D01*
X134710023Y-71082500D01*
X134741546Y-71020145D01*
X134760842Y-71003425D01*
X134848097Y-70942328D01*
X134946401Y-70873495D01*
X135113495Y-70706401D01*
X135243730Y-70520405D01*
X135298307Y-70476781D01*
X135367805Y-70469587D01*
X135430160Y-70501110D01*
G37*
%TD.AperFunction*%
%TA.AperFunction,NonConductor*%
G36*
X128108833Y-69555046D02*
G01*
X128164767Y-69596917D01*
X128189184Y-69662382D01*
X128189500Y-69671228D01*
X128189500Y-70087770D01*
X128169815Y-70154809D01*
X128153181Y-70175451D01*
X125455451Y-72873181D01*
X125394128Y-72906666D01*
X125367770Y-72909500D01*
X120567701Y-72909500D01*
X120500662Y-72889815D01*
X120466126Y-72856623D01*
X120418494Y-72788597D01*
X120251402Y-72621506D01*
X120251396Y-72621501D01*
X120065842Y-72491575D01*
X120022217Y-72436998D01*
X120015023Y-72367500D01*
X120046546Y-72305145D01*
X120065842Y-72288425D01*
X120113242Y-72255235D01*
X120251401Y-72158495D01*
X120418495Y-71991401D01*
X120464049Y-71926344D01*
X120466127Y-71923376D01*
X120520704Y-71879751D01*
X120567701Y-71870500D01*
X125453920Y-71870500D01*
X125551462Y-71851096D01*
X125598913Y-71841658D01*
X125735495Y-71785084D01*
X125807132Y-71737218D01*
X125858416Y-71702952D01*
X127977819Y-69583546D01*
X128039142Y-69550062D01*
X128108833Y-69555046D01*
G37*
%TD.AperFunction*%
%TA.AperFunction,NonConductor*%
G36*
X118259338Y-71890185D02*
G01*
X118293873Y-71923376D01*
X118341505Y-71991401D01*
X118508597Y-72158493D01*
X118508603Y-72158498D01*
X118694158Y-72288425D01*
X118737783Y-72343002D01*
X118744977Y-72412500D01*
X118713454Y-72474855D01*
X118694158Y-72491575D01*
X118508597Y-72621505D01*
X118341506Y-72788596D01*
X118293874Y-72856623D01*
X118239297Y-72900248D01*
X118192299Y-72909500D01*
X115487701Y-72909500D01*
X115420662Y-72889815D01*
X115386126Y-72856623D01*
X115338494Y-72788597D01*
X115171402Y-72621506D01*
X115171396Y-72621501D01*
X114985842Y-72491575D01*
X114942217Y-72436998D01*
X114935023Y-72367500D01*
X114966546Y-72305145D01*
X114985842Y-72288425D01*
X115033242Y-72255235D01*
X115171401Y-72158495D01*
X115338495Y-71991401D01*
X115384049Y-71926344D01*
X115386127Y-71923376D01*
X115440704Y-71879751D01*
X115487701Y-71870500D01*
X118192299Y-71870500D01*
X118259338Y-71890185D01*
G37*
%TD.AperFunction*%
%TA.AperFunction,NonConductor*%
G36*
X135494338Y-73145185D02*
G01*
X135528873Y-73178376D01*
X135576505Y-73246401D01*
X135743597Y-73413493D01*
X135743603Y-73413498D01*
X135929158Y-73543425D01*
X135972783Y-73598002D01*
X135979977Y-73667500D01*
X135948454Y-73729855D01*
X135929158Y-73746575D01*
X135743600Y-73876503D01*
X135621284Y-73998819D01*
X135559961Y-74032303D01*
X135490269Y-74027319D01*
X135434336Y-73985447D01*
X135417421Y-73954470D01*
X135368354Y-73822913D01*
X135368350Y-73822906D01*
X135282190Y-73707812D01*
X135282187Y-73707809D01*
X135167093Y-73621649D01*
X135167088Y-73621646D01*
X135035528Y-73572577D01*
X134979595Y-73530705D01*
X134955178Y-73465241D01*
X134970030Y-73396968D01*
X134991175Y-73368720D01*
X135113495Y-73246401D01*
X135161127Y-73178376D01*
X135215704Y-73134751D01*
X135262701Y-73125500D01*
X135427299Y-73125500D01*
X135494338Y-73145185D01*
G37*
%TD.AperFunction*%
M02*
