%TF.GenerationSoftware,KiCad,Pcbnew,8.0.3*%
%TF.CreationDate,2024-07-07T19:01:39+09:00*%
%TF.ProjectId,next_usb_device,6e657874-5f75-4736-925f-646576696365,rev?*%
%TF.SameCoordinates,Original*%
%TF.FileFunction,Drillmap*%
%TF.FilePolarity,Positive*%
%FSLAX45Y45*%
G04 Gerber Fmt 4.5, Leading zero omitted, Abs format (unit mm)*
G04 Created by KiCad (PCBNEW 8.0.3) date 2024-07-07 19:01:39*
%MOMM*%
%LPD*%
G01*
G04 APERTURE LIST*
%ADD10C,0.050000*%
%ADD11C,0.200000*%
G04 APERTURE END LIST*
D10*
X10300000Y-6300000D02*
X13800000Y-6300000D01*
X13800000Y-8200000D01*
X10300000Y-8200000D01*
X10300000Y-6300000D01*
D11*
X10558277Y-8513984D02*
X10558277Y-8313984D01*
X10558277Y-8313984D02*
X10605896Y-8313984D01*
X10605896Y-8313984D02*
X10634467Y-8323508D01*
X10634467Y-8323508D02*
X10653515Y-8342555D01*
X10653515Y-8342555D02*
X10663039Y-8361603D01*
X10663039Y-8361603D02*
X10672563Y-8399698D01*
X10672563Y-8399698D02*
X10672563Y-8428270D01*
X10672563Y-8428270D02*
X10663039Y-8466365D01*
X10663039Y-8466365D02*
X10653515Y-8485412D01*
X10653515Y-8485412D02*
X10634467Y-8504460D01*
X10634467Y-8504460D02*
X10605896Y-8513984D01*
X10605896Y-8513984D02*
X10558277Y-8513984D01*
X10758277Y-8513984D02*
X10758277Y-8380650D01*
X10758277Y-8418746D02*
X10767801Y-8399698D01*
X10767801Y-8399698D02*
X10777324Y-8390174D01*
X10777324Y-8390174D02*
X10796372Y-8380650D01*
X10796372Y-8380650D02*
X10815420Y-8380650D01*
X10882086Y-8513984D02*
X10882086Y-8380650D01*
X10882086Y-8313984D02*
X10872563Y-8323508D01*
X10872563Y-8323508D02*
X10882086Y-8333031D01*
X10882086Y-8333031D02*
X10891610Y-8323508D01*
X10891610Y-8323508D02*
X10882086Y-8313984D01*
X10882086Y-8313984D02*
X10882086Y-8333031D01*
X11005896Y-8513984D02*
X10986848Y-8504460D01*
X10986848Y-8504460D02*
X10977324Y-8485412D01*
X10977324Y-8485412D02*
X10977324Y-8313984D01*
X11110658Y-8513984D02*
X11091610Y-8504460D01*
X11091610Y-8504460D02*
X11082086Y-8485412D01*
X11082086Y-8485412D02*
X11082086Y-8313984D01*
X11339229Y-8513984D02*
X11339229Y-8313984D01*
X11339229Y-8313984D02*
X11405896Y-8456841D01*
X11405896Y-8456841D02*
X11472562Y-8313984D01*
X11472562Y-8313984D02*
X11472562Y-8513984D01*
X11653515Y-8513984D02*
X11653515Y-8409222D01*
X11653515Y-8409222D02*
X11643991Y-8390174D01*
X11643991Y-8390174D02*
X11624943Y-8380650D01*
X11624943Y-8380650D02*
X11586848Y-8380650D01*
X11586848Y-8380650D02*
X11567801Y-8390174D01*
X11653515Y-8504460D02*
X11634467Y-8513984D01*
X11634467Y-8513984D02*
X11586848Y-8513984D01*
X11586848Y-8513984D02*
X11567801Y-8504460D01*
X11567801Y-8504460D02*
X11558277Y-8485412D01*
X11558277Y-8485412D02*
X11558277Y-8466365D01*
X11558277Y-8466365D02*
X11567801Y-8447317D01*
X11567801Y-8447317D02*
X11586848Y-8437793D01*
X11586848Y-8437793D02*
X11634467Y-8437793D01*
X11634467Y-8437793D02*
X11653515Y-8428270D01*
X11748753Y-8380650D02*
X11748753Y-8580650D01*
X11748753Y-8390174D02*
X11767801Y-8380650D01*
X11767801Y-8380650D02*
X11805896Y-8380650D01*
X11805896Y-8380650D02*
X11824943Y-8390174D01*
X11824943Y-8390174D02*
X11834467Y-8399698D01*
X11834467Y-8399698D02*
X11843991Y-8418746D01*
X11843991Y-8418746D02*
X11843991Y-8475889D01*
X11843991Y-8475889D02*
X11834467Y-8494936D01*
X11834467Y-8494936D02*
X11824943Y-8504460D01*
X11824943Y-8504460D02*
X11805896Y-8513984D01*
X11805896Y-8513984D02*
X11767801Y-8513984D01*
X11767801Y-8513984D02*
X11748753Y-8504460D01*
X11929705Y-8494936D02*
X11939229Y-8504460D01*
X11939229Y-8504460D02*
X11929705Y-8513984D01*
X11929705Y-8513984D02*
X11920182Y-8504460D01*
X11920182Y-8504460D02*
X11929705Y-8494936D01*
X11929705Y-8494936D02*
X11929705Y-8513984D01*
X11929705Y-8390174D02*
X11939229Y-8399698D01*
X11939229Y-8399698D02*
X11929705Y-8409222D01*
X11929705Y-8409222D02*
X11920182Y-8399698D01*
X11920182Y-8399698D02*
X11929705Y-8390174D01*
X11929705Y-8390174D02*
X11929705Y-8409222D01*
M02*
