%TF.GenerationSoftware,KiCad,Pcbnew,8.0.3*%
%TF.CreationDate,2024-07-07T19:01:36+09:00*%
%TF.ProjectId,next_usb_device,6e657874-5f75-4736-925f-646576696365,rev?*%
%TF.SameCoordinates,Original*%
%TF.FileFunction,Legend,Bot*%
%TF.FilePolarity,Positive*%
%FSLAX46Y46*%
G04 Gerber Fmt 4.6, Leading zero omitted, Abs format (unit mm)*
G04 Created by KiCad (PCBNEW 8.0.3) date 2024-07-07 19:01:36*
%MOMM*%
%LPD*%
G01*
G04 APERTURE LIST*
%ADD10C,0.100000*%
%ADD11C,0.150000*%
%ADD12C,0.120000*%
G04 APERTURE END LIST*
D10*
X132000000Y-69800000D02*
X132800000Y-69800000D01*
X132000000Y-75000000D02*
X132600000Y-75000000D01*
X132000000Y-68400000D02*
X132000000Y-76400000D01*
X132000000Y-72400000D02*
X132800000Y-72400000D01*
X135541979Y-64457292D02*
X135589598Y-64504912D01*
X135589598Y-64504912D02*
X135732455Y-64552531D01*
X135732455Y-64552531D02*
X135827693Y-64552531D01*
X135827693Y-64552531D02*
X135970550Y-64504912D01*
X135970550Y-64504912D02*
X136065788Y-64409673D01*
X136065788Y-64409673D02*
X136113407Y-64314435D01*
X136113407Y-64314435D02*
X136161026Y-64123959D01*
X136161026Y-64123959D02*
X136161026Y-63981102D01*
X136161026Y-63981102D02*
X136113407Y-63790626D01*
X136113407Y-63790626D02*
X136065788Y-63695388D01*
X136065788Y-63695388D02*
X135970550Y-63600150D01*
X135970550Y-63600150D02*
X135827693Y-63552531D01*
X135827693Y-63552531D02*
X135732455Y-63552531D01*
X135732455Y-63552531D02*
X135589598Y-63600150D01*
X135589598Y-63600150D02*
X135541979Y-63647769D01*
X135208645Y-63552531D02*
X134970550Y-64552531D01*
X134970550Y-64552531D02*
X134780074Y-63838245D01*
X134780074Y-63838245D02*
X134589598Y-64552531D01*
X134589598Y-64552531D02*
X134351503Y-63552531D01*
X133399122Y-64457292D02*
X133446741Y-64504912D01*
X133446741Y-64504912D02*
X133589598Y-64552531D01*
X133589598Y-64552531D02*
X133684836Y-64552531D01*
X133684836Y-64552531D02*
X133827693Y-64504912D01*
X133827693Y-64504912D02*
X133922931Y-64409673D01*
X133922931Y-64409673D02*
X133970550Y-64314435D01*
X133970550Y-64314435D02*
X134018169Y-64123959D01*
X134018169Y-64123959D02*
X134018169Y-63981102D01*
X134018169Y-63981102D02*
X133970550Y-63790626D01*
X133970550Y-63790626D02*
X133922931Y-63695388D01*
X133922931Y-63695388D02*
X133827693Y-63600150D01*
X133827693Y-63600150D02*
X133684836Y-63552531D01*
X133684836Y-63552531D02*
X133589598Y-63552531D01*
X133589598Y-63552531D02*
X133446741Y-63600150D01*
X133446741Y-63600150D02*
X133399122Y-63647769D01*
X132399122Y-64457292D02*
X132446741Y-64504912D01*
X132446741Y-64504912D02*
X132589598Y-64552531D01*
X132589598Y-64552531D02*
X132684836Y-64552531D01*
X132684836Y-64552531D02*
X132827693Y-64504912D01*
X132827693Y-64504912D02*
X132922931Y-64409673D01*
X132922931Y-64409673D02*
X132970550Y-64314435D01*
X132970550Y-64314435D02*
X133018169Y-64123959D01*
X133018169Y-64123959D02*
X133018169Y-63981102D01*
X133018169Y-63981102D02*
X132970550Y-63790626D01*
X132970550Y-63790626D02*
X132922931Y-63695388D01*
X132922931Y-63695388D02*
X132827693Y-63600150D01*
X132827693Y-63600150D02*
X132684836Y-63552531D01*
X132684836Y-63552531D02*
X132589598Y-63552531D01*
X132589598Y-63552531D02*
X132446741Y-63600150D01*
X132446741Y-63600150D02*
X132399122Y-63647769D01*
X132065788Y-63552531D02*
X131827693Y-64552531D01*
X131827693Y-64552531D02*
X131637217Y-63838245D01*
X131637217Y-63838245D02*
X131446741Y-64552531D01*
X131446741Y-64552531D02*
X131208646Y-63552531D01*
X134113407Y-66162475D02*
X134113407Y-65162475D01*
X134113407Y-65162475D02*
X133732455Y-65162475D01*
X133732455Y-65162475D02*
X133637217Y-65210094D01*
X133637217Y-65210094D02*
X133589598Y-65257713D01*
X133589598Y-65257713D02*
X133541979Y-65352951D01*
X133541979Y-65352951D02*
X133541979Y-65495808D01*
X133541979Y-65495808D02*
X133589598Y-65591046D01*
X133589598Y-65591046D02*
X133637217Y-65638665D01*
X133637217Y-65638665D02*
X133732455Y-65686284D01*
X133732455Y-65686284D02*
X134113407Y-65686284D01*
X133208645Y-65162475D02*
X132970550Y-66162475D01*
X132970550Y-66162475D02*
X132780074Y-65448189D01*
X132780074Y-65448189D02*
X132589598Y-66162475D01*
X132589598Y-66162475D02*
X132351503Y-65162475D01*
X131970550Y-66162475D02*
X131970550Y-65162475D01*
X131970550Y-65162475D02*
X131637217Y-65876760D01*
X131637217Y-65876760D02*
X131303884Y-65162475D01*
X131303884Y-65162475D02*
X131303884Y-66162475D01*
X133351503Y-66820038D02*
X133446741Y-66772419D01*
X133446741Y-66772419D02*
X133589598Y-66772419D01*
X133589598Y-66772419D02*
X133732455Y-66820038D01*
X133732455Y-66820038D02*
X133827693Y-66915276D01*
X133827693Y-66915276D02*
X133875312Y-67010514D01*
X133875312Y-67010514D02*
X133922931Y-67200990D01*
X133922931Y-67200990D02*
X133922931Y-67343847D01*
X133922931Y-67343847D02*
X133875312Y-67534323D01*
X133875312Y-67534323D02*
X133827693Y-67629561D01*
X133827693Y-67629561D02*
X133732455Y-67724800D01*
X133732455Y-67724800D02*
X133589598Y-67772419D01*
X133589598Y-67772419D02*
X133494360Y-67772419D01*
X133494360Y-67772419D02*
X133351503Y-67724800D01*
X133351503Y-67724800D02*
X133303884Y-67677180D01*
X133303884Y-67677180D02*
X133303884Y-67343847D01*
X133303884Y-67343847D02*
X133494360Y-67343847D01*
X132875312Y-67772419D02*
X132875312Y-66772419D01*
X132875312Y-66772419D02*
X132303884Y-67772419D01*
X132303884Y-67772419D02*
X132303884Y-66772419D01*
X131827693Y-67772419D02*
X131827693Y-66772419D01*
X131827693Y-66772419D02*
X131589598Y-66772419D01*
X131589598Y-66772419D02*
X131446741Y-66820038D01*
X131446741Y-66820038D02*
X131351503Y-66915276D01*
X131351503Y-66915276D02*
X131303884Y-67010514D01*
X131303884Y-67010514D02*
X131256265Y-67200990D01*
X131256265Y-67200990D02*
X131256265Y-67343847D01*
X131256265Y-67343847D02*
X131303884Y-67534323D01*
X131303884Y-67534323D02*
X131351503Y-67629561D01*
X131351503Y-67629561D02*
X131446741Y-67724800D01*
X131446741Y-67724800D02*
X131589598Y-67772419D01*
X131589598Y-67772419D02*
X131827693Y-67772419D01*
D11*
X111091792Y-68724860D02*
X111139411Y-68772480D01*
X111139411Y-68772480D02*
X111282268Y-68820099D01*
X111282268Y-68820099D02*
X111377506Y-68820099D01*
X111377506Y-68820099D02*
X111520363Y-68772480D01*
X111520363Y-68772480D02*
X111615601Y-68677241D01*
X111615601Y-68677241D02*
X111663220Y-68582003D01*
X111663220Y-68582003D02*
X111710839Y-68391527D01*
X111710839Y-68391527D02*
X111710839Y-68248670D01*
X111710839Y-68248670D02*
X111663220Y-68058194D01*
X111663220Y-68058194D02*
X111615601Y-67962956D01*
X111615601Y-67962956D02*
X111520363Y-67867718D01*
X111520363Y-67867718D02*
X111377506Y-67820099D01*
X111377506Y-67820099D02*
X111282268Y-67820099D01*
X111282268Y-67820099D02*
X111139411Y-67867718D01*
X111139411Y-67867718D02*
X111091792Y-67915337D01*
X110472744Y-67820099D02*
X110282268Y-67820099D01*
X110282268Y-67820099D02*
X110187030Y-67867718D01*
X110187030Y-67867718D02*
X110091792Y-67962956D01*
X110091792Y-67962956D02*
X110044173Y-68153432D01*
X110044173Y-68153432D02*
X110044173Y-68486765D01*
X110044173Y-68486765D02*
X110091792Y-68677241D01*
X110091792Y-68677241D02*
X110187030Y-68772480D01*
X110187030Y-68772480D02*
X110282268Y-68820099D01*
X110282268Y-68820099D02*
X110472744Y-68820099D01*
X110472744Y-68820099D02*
X110567982Y-68772480D01*
X110567982Y-68772480D02*
X110663220Y-68677241D01*
X110663220Y-68677241D02*
X110710839Y-68486765D01*
X110710839Y-68486765D02*
X110710839Y-68153432D01*
X110710839Y-68153432D02*
X110663220Y-67962956D01*
X110663220Y-67962956D02*
X110567982Y-67867718D01*
X110567982Y-67867718D02*
X110472744Y-67820099D01*
X109615601Y-68820099D02*
X109615601Y-67820099D01*
X109615601Y-67820099D02*
X109044173Y-68820099D01*
X109044173Y-68820099D02*
X109044173Y-67820099D01*
X111663220Y-69430043D02*
X111663220Y-70239566D01*
X111663220Y-70239566D02*
X111615601Y-70334804D01*
X111615601Y-70334804D02*
X111567982Y-70382424D01*
X111567982Y-70382424D02*
X111472744Y-70430043D01*
X111472744Y-70430043D02*
X111282268Y-70430043D01*
X111282268Y-70430043D02*
X111187030Y-70382424D01*
X111187030Y-70382424D02*
X111139411Y-70334804D01*
X111139411Y-70334804D02*
X111091792Y-70239566D01*
X111091792Y-70239566D02*
X111091792Y-69430043D01*
X110615601Y-70430043D02*
X110615601Y-69430043D01*
X110615601Y-69430043D02*
X110044173Y-70430043D01*
X110044173Y-70430043D02*
X110044173Y-69430043D01*
X109567982Y-69430043D02*
X109567982Y-70239566D01*
X109567982Y-70239566D02*
X109520363Y-70334804D01*
X109520363Y-70334804D02*
X109472744Y-70382424D01*
X109472744Y-70382424D02*
X109377506Y-70430043D01*
X109377506Y-70430043D02*
X109187030Y-70430043D01*
X109187030Y-70430043D02*
X109091792Y-70382424D01*
X109091792Y-70382424D02*
X109044173Y-70334804D01*
X109044173Y-70334804D02*
X108996554Y-70239566D01*
X108996554Y-70239566D02*
X108996554Y-69430043D01*
X108567982Y-70382424D02*
X108425125Y-70430043D01*
X108425125Y-70430043D02*
X108187030Y-70430043D01*
X108187030Y-70430043D02*
X108091792Y-70382424D01*
X108091792Y-70382424D02*
X108044173Y-70334804D01*
X108044173Y-70334804D02*
X107996554Y-70239566D01*
X107996554Y-70239566D02*
X107996554Y-70144328D01*
X107996554Y-70144328D02*
X108044173Y-70049090D01*
X108044173Y-70049090D02*
X108091792Y-70001471D01*
X108091792Y-70001471D02*
X108187030Y-69953852D01*
X108187030Y-69953852D02*
X108377506Y-69906233D01*
X108377506Y-69906233D02*
X108472744Y-69858614D01*
X108472744Y-69858614D02*
X108520363Y-69810995D01*
X108520363Y-69810995D02*
X108567982Y-69715757D01*
X108567982Y-69715757D02*
X108567982Y-69620519D01*
X108567982Y-69620519D02*
X108520363Y-69525281D01*
X108520363Y-69525281D02*
X108472744Y-69477662D01*
X108472744Y-69477662D02*
X108377506Y-69430043D01*
X108377506Y-69430043D02*
X108139411Y-69430043D01*
X108139411Y-69430043D02*
X107996554Y-69477662D01*
X107567982Y-69906233D02*
X107234649Y-69906233D01*
X107091792Y-70430043D02*
X107567982Y-70430043D01*
X107567982Y-70430043D02*
X107567982Y-69430043D01*
X107567982Y-69430043D02*
X107091792Y-69430043D01*
X111091792Y-71944748D02*
X111139411Y-71992368D01*
X111139411Y-71992368D02*
X111282268Y-72039987D01*
X111282268Y-72039987D02*
X111377506Y-72039987D01*
X111377506Y-72039987D02*
X111520363Y-71992368D01*
X111520363Y-71992368D02*
X111615601Y-71897129D01*
X111615601Y-71897129D02*
X111663220Y-71801891D01*
X111663220Y-71801891D02*
X111710839Y-71611415D01*
X111710839Y-71611415D02*
X111710839Y-71468558D01*
X111710839Y-71468558D02*
X111663220Y-71278082D01*
X111663220Y-71278082D02*
X111615601Y-71182844D01*
X111615601Y-71182844D02*
X111520363Y-71087606D01*
X111520363Y-71087606D02*
X111377506Y-71039987D01*
X111377506Y-71039987D02*
X111282268Y-71039987D01*
X111282268Y-71039987D02*
X111139411Y-71087606D01*
X111139411Y-71087606D02*
X111091792Y-71135225D01*
X110758458Y-71039987D02*
X110520363Y-72039987D01*
X110520363Y-72039987D02*
X110329887Y-71325701D01*
X110329887Y-71325701D02*
X110139411Y-72039987D01*
X110139411Y-72039987D02*
X109901316Y-71039987D01*
X108806078Y-70992368D02*
X109663220Y-72278082D01*
X107901316Y-71944748D02*
X107948935Y-71992368D01*
X107948935Y-71992368D02*
X108091792Y-72039987D01*
X108091792Y-72039987D02*
X108187030Y-72039987D01*
X108187030Y-72039987D02*
X108329887Y-71992368D01*
X108329887Y-71992368D02*
X108425125Y-71897129D01*
X108425125Y-71897129D02*
X108472744Y-71801891D01*
X108472744Y-71801891D02*
X108520363Y-71611415D01*
X108520363Y-71611415D02*
X108520363Y-71468558D01*
X108520363Y-71468558D02*
X108472744Y-71278082D01*
X108472744Y-71278082D02*
X108425125Y-71182844D01*
X108425125Y-71182844D02*
X108329887Y-71087606D01*
X108329887Y-71087606D02*
X108187030Y-71039987D01*
X108187030Y-71039987D02*
X108091792Y-71039987D01*
X108091792Y-71039987D02*
X107948935Y-71087606D01*
X107948935Y-71087606D02*
X107901316Y-71135225D01*
X106901316Y-71944748D02*
X106948935Y-71992368D01*
X106948935Y-71992368D02*
X107091792Y-72039987D01*
X107091792Y-72039987D02*
X107187030Y-72039987D01*
X107187030Y-72039987D02*
X107329887Y-71992368D01*
X107329887Y-71992368D02*
X107425125Y-71897129D01*
X107425125Y-71897129D02*
X107472744Y-71801891D01*
X107472744Y-71801891D02*
X107520363Y-71611415D01*
X107520363Y-71611415D02*
X107520363Y-71468558D01*
X107520363Y-71468558D02*
X107472744Y-71278082D01*
X107472744Y-71278082D02*
X107425125Y-71182844D01*
X107425125Y-71182844D02*
X107329887Y-71087606D01*
X107329887Y-71087606D02*
X107187030Y-71039987D01*
X107187030Y-71039987D02*
X107091792Y-71039987D01*
X107091792Y-71039987D02*
X106948935Y-71087606D01*
X106948935Y-71087606D02*
X106901316Y-71135225D01*
X106567982Y-71039987D02*
X106329887Y-72039987D01*
X106329887Y-72039987D02*
X106139411Y-71325701D01*
X106139411Y-71325701D02*
X105948935Y-72039987D01*
X105948935Y-72039987D02*
X105710840Y-71039987D01*
X111663220Y-73649931D02*
X111663220Y-72649931D01*
X111663220Y-72649931D02*
X111282268Y-72649931D01*
X111282268Y-72649931D02*
X111187030Y-72697550D01*
X111187030Y-72697550D02*
X111139411Y-72745169D01*
X111139411Y-72745169D02*
X111091792Y-72840407D01*
X111091792Y-72840407D02*
X111091792Y-72983264D01*
X111091792Y-72983264D02*
X111139411Y-73078502D01*
X111139411Y-73078502D02*
X111187030Y-73126121D01*
X111187030Y-73126121D02*
X111282268Y-73173740D01*
X111282268Y-73173740D02*
X111663220Y-73173740D01*
X110758458Y-72649931D02*
X110520363Y-73649931D01*
X110520363Y-73649931D02*
X110329887Y-72935645D01*
X110329887Y-72935645D02*
X110139411Y-73649931D01*
X110139411Y-73649931D02*
X109901316Y-72649931D01*
X109520363Y-73649931D02*
X109520363Y-72649931D01*
X109520363Y-72649931D02*
X109187030Y-73364216D01*
X109187030Y-73364216D02*
X108853697Y-72649931D01*
X108853697Y-72649931D02*
X108853697Y-73649931D01*
X111139411Y-74307494D02*
X111234649Y-74259875D01*
X111234649Y-74259875D02*
X111377506Y-74259875D01*
X111377506Y-74259875D02*
X111520363Y-74307494D01*
X111520363Y-74307494D02*
X111615601Y-74402732D01*
X111615601Y-74402732D02*
X111663220Y-74497970D01*
X111663220Y-74497970D02*
X111710839Y-74688446D01*
X111710839Y-74688446D02*
X111710839Y-74831303D01*
X111710839Y-74831303D02*
X111663220Y-75021779D01*
X111663220Y-75021779D02*
X111615601Y-75117017D01*
X111615601Y-75117017D02*
X111520363Y-75212256D01*
X111520363Y-75212256D02*
X111377506Y-75259875D01*
X111377506Y-75259875D02*
X111282268Y-75259875D01*
X111282268Y-75259875D02*
X111139411Y-75212256D01*
X111139411Y-75212256D02*
X111091792Y-75164636D01*
X111091792Y-75164636D02*
X111091792Y-74831303D01*
X111091792Y-74831303D02*
X111282268Y-74831303D01*
X110663220Y-75259875D02*
X110663220Y-74259875D01*
X110663220Y-74259875D02*
X110091792Y-75259875D01*
X110091792Y-75259875D02*
X110091792Y-74259875D01*
X109615601Y-75259875D02*
X109615601Y-74259875D01*
X109615601Y-74259875D02*
X109377506Y-74259875D01*
X109377506Y-74259875D02*
X109234649Y-74307494D01*
X109234649Y-74307494D02*
X109139411Y-74402732D01*
X109139411Y-74402732D02*
X109091792Y-74497970D01*
X109091792Y-74497970D02*
X109044173Y-74688446D01*
X109044173Y-74688446D02*
X109044173Y-74831303D01*
X109044173Y-74831303D02*
X109091792Y-75021779D01*
X109091792Y-75021779D02*
X109139411Y-75117017D01*
X109139411Y-75117017D02*
X109234649Y-75212256D01*
X109234649Y-75212256D02*
X109377506Y-75259875D01*
X109377506Y-75259875D02*
X109615601Y-75259875D01*
X111187030Y-75869819D02*
X111663220Y-75869819D01*
X111663220Y-75869819D02*
X111710839Y-76346009D01*
X111710839Y-76346009D02*
X111663220Y-76298390D01*
X111663220Y-76298390D02*
X111567982Y-76250771D01*
X111567982Y-76250771D02*
X111329887Y-76250771D01*
X111329887Y-76250771D02*
X111234649Y-76298390D01*
X111234649Y-76298390D02*
X111187030Y-76346009D01*
X111187030Y-76346009D02*
X111139411Y-76441247D01*
X111139411Y-76441247D02*
X111139411Y-76679342D01*
X111139411Y-76679342D02*
X111187030Y-76774580D01*
X111187030Y-76774580D02*
X111234649Y-76822200D01*
X111234649Y-76822200D02*
X111329887Y-76869819D01*
X111329887Y-76869819D02*
X111567982Y-76869819D01*
X111567982Y-76869819D02*
X111663220Y-76822200D01*
X111663220Y-76822200D02*
X111710839Y-76774580D01*
X110853696Y-75869819D02*
X110520363Y-76869819D01*
X110520363Y-76869819D02*
X110187030Y-75869819D01*
D10*
X130696115Y-77652531D02*
X130696115Y-76652531D01*
X130696115Y-76652531D02*
X130315163Y-76652531D01*
X130315163Y-76652531D02*
X130219925Y-76700150D01*
X130219925Y-76700150D02*
X130172306Y-76747769D01*
X130172306Y-76747769D02*
X130124687Y-76843007D01*
X130124687Y-76843007D02*
X130124687Y-76985864D01*
X130124687Y-76985864D02*
X130172306Y-77081102D01*
X130172306Y-77081102D02*
X130219925Y-77128721D01*
X130219925Y-77128721D02*
X130315163Y-77176340D01*
X130315163Y-77176340D02*
X130696115Y-77176340D01*
X129791353Y-76652531D02*
X129553258Y-77652531D01*
X129553258Y-77652531D02*
X129362782Y-76938245D01*
X129362782Y-76938245D02*
X129172306Y-77652531D01*
X129172306Y-77652531D02*
X128934211Y-76652531D01*
X128553258Y-77652531D02*
X128553258Y-76652531D01*
X128553258Y-76652531D02*
X128219925Y-77366816D01*
X128219925Y-77366816D02*
X127886592Y-76652531D01*
X127886592Y-76652531D02*
X127886592Y-77652531D01*
X130219925Y-78262475D02*
X130696115Y-78262475D01*
X130696115Y-78262475D02*
X130743734Y-78738665D01*
X130743734Y-78738665D02*
X130696115Y-78691046D01*
X130696115Y-78691046D02*
X130600877Y-78643427D01*
X130600877Y-78643427D02*
X130362782Y-78643427D01*
X130362782Y-78643427D02*
X130267544Y-78691046D01*
X130267544Y-78691046D02*
X130219925Y-78738665D01*
X130219925Y-78738665D02*
X130172306Y-78833903D01*
X130172306Y-78833903D02*
X130172306Y-79071998D01*
X130172306Y-79071998D02*
X130219925Y-79167236D01*
X130219925Y-79167236D02*
X130267544Y-79214856D01*
X130267544Y-79214856D02*
X130362782Y-79262475D01*
X130362782Y-79262475D02*
X130600877Y-79262475D01*
X130600877Y-79262475D02*
X130696115Y-79214856D01*
X130696115Y-79214856D02*
X130743734Y-79167236D01*
X129886591Y-78262475D02*
X129553258Y-79262475D01*
X129553258Y-79262475D02*
X129219925Y-78262475D01*
X130172306Y-79920038D02*
X130267544Y-79872419D01*
X130267544Y-79872419D02*
X130410401Y-79872419D01*
X130410401Y-79872419D02*
X130553258Y-79920038D01*
X130553258Y-79920038D02*
X130648496Y-80015276D01*
X130648496Y-80015276D02*
X130696115Y-80110514D01*
X130696115Y-80110514D02*
X130743734Y-80300990D01*
X130743734Y-80300990D02*
X130743734Y-80443847D01*
X130743734Y-80443847D02*
X130696115Y-80634323D01*
X130696115Y-80634323D02*
X130648496Y-80729561D01*
X130648496Y-80729561D02*
X130553258Y-80824800D01*
X130553258Y-80824800D02*
X130410401Y-80872419D01*
X130410401Y-80872419D02*
X130315163Y-80872419D01*
X130315163Y-80872419D02*
X130172306Y-80824800D01*
X130172306Y-80824800D02*
X130124687Y-80777180D01*
X130124687Y-80777180D02*
X130124687Y-80443847D01*
X130124687Y-80443847D02*
X130315163Y-80443847D01*
X129696115Y-80872419D02*
X129696115Y-79872419D01*
X129696115Y-79872419D02*
X129124687Y-80872419D01*
X129124687Y-80872419D02*
X129124687Y-79872419D01*
X128648496Y-80872419D02*
X128648496Y-79872419D01*
X128648496Y-79872419D02*
X128410401Y-79872419D01*
X128410401Y-79872419D02*
X128267544Y-79920038D01*
X128267544Y-79920038D02*
X128172306Y-80015276D01*
X128172306Y-80015276D02*
X128124687Y-80110514D01*
X128124687Y-80110514D02*
X128077068Y-80300990D01*
X128077068Y-80300990D02*
X128077068Y-80443847D01*
X128077068Y-80443847D02*
X128124687Y-80634323D01*
X128124687Y-80634323D02*
X128172306Y-80729561D01*
X128172306Y-80729561D02*
X128267544Y-80824800D01*
X128267544Y-80824800D02*
X128410401Y-80872419D01*
X128410401Y-80872419D02*
X128648496Y-80872419D01*
D12*
%TO.C,JP1*%
X123460000Y-75010000D02*
X123460000Y-73610000D01*
X124160000Y-72910000D02*
X124760000Y-72910000D01*
X124760000Y-75710000D02*
X124160000Y-75710000D01*
X125460000Y-73610000D02*
X125460000Y-75010000D01*
X123460000Y-73610000D02*
G75*
G02*
X124160000Y-72910000I699999J1D01*
G01*
X124160000Y-75710000D02*
G75*
G02*
X123460000Y-75010000I0J700000D01*
G01*
X124760000Y-72910000D02*
G75*
G02*
X125460000Y-73610000I1J-699999D01*
G01*
X125460000Y-75010000D02*
G75*
G02*
X124760000Y-75710000I-700000J0D01*
G01*
%TD*%
M02*
